<svg width="393" height="505" viewBox="0 0 393 505" fill="none" xmlns="http://www.w3.org/2000/svg">
<rect width="393" height="505" fill="#3B82B6"/>
<path d="M-284 -225H676V735H-284V-225Z" fill="white"/>
<line x1="390.029" y1="357.18" x2="390.029" y2="5.00031" stroke="#00A551" stroke-width="5"/>
<line x1="2.7207" y1="357.559" x2="2.7207" y2="5.00671" stroke="#00A551" stroke-width="5"/>
<line x1="0.200195" y1="2.53711" x2="392.502" y2="2.53711" stroke="#00A551" stroke-width="5"/>
<mask id="path-5-inside-1_0_1" fill="white">
<path d="M189.785 38.6178C186.282 42.9622 181.689 48.5134 179.743 50.9269L176.162 55.3518H196.247C218.355 55.3518 217.421 55.6736 212.594 50.2833C211.349 48.8352 207.223 43.9276 203.486 39.2614C199.75 34.5952 196.558 30.8139 196.48 30.8139C196.402 30.8139 193.366 34.3538 189.785 38.6178Z"/>
</mask>
<path d="M189.785 38.6178C186.282 42.9622 181.689 48.5134 179.743 50.9269L176.162 55.3518H196.247C218.355 55.3518 217.421 55.6736 212.594 50.2833C211.349 48.8352 207.223 43.9276 203.486 39.2614C199.75 34.5952 196.558 30.8139 196.48 30.8139C196.402 30.8139 193.366 34.3538 189.785 38.6178Z" fill="#E7FFF0" stroke="#00A551" stroke-width="10" mask="url(#path-5-inside-1_0_1)"/>
<mask id="path-6-inside-2_0_1" fill="white">
<path d="M179.047 32.4098C177.101 32.812 171.263 33.697 166.047 34.582C160.753 35.3865 156.472 36.2715 156.472 36.5933C156.472 37.1564 164.646 42.8685 165.502 42.8685C165.735 42.8685 166.825 43.5926 167.915 44.4776C170.484 46.5693 172.352 46.4889 173.832 44.2362C174.454 43.2708 176.634 40.6159 178.58 38.4437C182.395 34.2602 184.185 31.5248 183.173 31.6857C182.862 31.7661 180.993 32.088 179.047 32.4098Z"/>
</mask>
<path d="M179.047 32.4098C177.101 32.812 171.263 33.697 166.047 34.582C160.753 35.3865 156.472 36.2715 156.472 36.5933C156.472 37.1564 164.646 42.8685 165.502 42.8685C165.735 42.8685 166.825 43.5926 167.915 44.4776C170.484 46.5693 172.352 46.4889 173.832 44.2362C174.454 43.2708 176.634 40.6159 178.58 38.4437C182.395 34.2602 184.185 31.5248 183.173 31.6857C182.862 31.7661 180.993 32.088 179.047 32.4098Z" fill="#E7FFF0" stroke="#00A551" stroke-width="10" mask="url(#path-6-inside-2_0_1)"/>
<mask id="path-7-inside-3_0_1" fill="white">
<path d="M210.343 33.9455C211.277 35.2327 213.924 38.4508 216.026 41.1862C218.205 43.8411 220.463 46.0938 221.164 46.0938C221.864 46.0938 223.343 45.3697 224.433 44.4847C225.523 43.5997 226.613 42.8757 226.846 42.8757C227.781 42.8757 235.877 37.1636 235.877 36.52C235.877 36.1981 233.619 35.635 230.739 35.3132C227.936 34.9914 223.188 34.2673 220.074 33.6237C216.96 33.0605 213.145 32.3364 211.511 32.0951L208.475 31.6928L210.343 33.9455Z"/>
</mask>
<path d="M210.343 33.9455C211.277 35.2327 213.924 38.4508 216.026 41.1862C218.205 43.8411 220.463 46.0938 221.164 46.0938C221.864 46.0938 223.343 45.3697 224.433 44.4847C225.523 43.5997 226.613 42.8757 226.846 42.8757C227.781 42.8757 235.877 37.1636 235.877 36.52C235.877 36.1981 233.619 35.635 230.739 35.3132C227.936 34.9914 223.188 34.2673 220.074 33.6237C216.96 33.0605 213.145 32.3364 211.511 32.0951L208.475 31.6928L210.343 33.9455Z" fill="#E7FFF0" stroke="#00A551" stroke-width="10" mask="url(#path-7-inside-3_0_1)"/>
<mask id="path-8-inside-4_0_1" fill="white">
<path d="M142.541 41.1174C142.152 41.8414 139.817 47.7144 137.404 54.1506C134.912 60.5868 132.421 66.7816 131.876 67.9884C130.553 70.6433 130.864 70.7237 134.99 68.7124C143.164 64.6898 154.374 60.7477 163.716 58.5755C166.985 57.771 169.71 56.886 169.71 56.6446C169.71 56.4033 168.776 55.5988 167.53 54.8747C166.363 54.0702 163.171 52.0589 160.368 50.3694C143.242 39.5888 143.32 39.6692 142.541 41.1174Z"/>
</mask>
<path d="M142.541 41.1174C142.152 41.8414 139.817 47.7144 137.404 54.1506C134.912 60.5868 132.421 66.7816 131.876 67.9884C130.553 70.6433 130.864 70.7237 134.99 68.7124C143.164 64.6898 154.374 60.7477 163.716 58.5755C166.985 57.771 169.71 56.886 169.71 56.6446C169.71 56.4033 168.776 55.5988 167.53 54.8747C166.363 54.0702 163.171 52.0589 160.368 50.3694C143.242 39.5888 143.32 39.6692 142.541 41.1174Z" fill="#E7FFF0" stroke="#00A551" stroke-width="10" mask="url(#path-8-inside-4_0_1)"/>
<mask id="path-9-inside-5_0_1" fill="white">
<path d="M237.891 46.0986C232.442 49.6385 227.771 52.5348 227.616 52.5348C226.759 52.5348 221.933 56.4769 222.4 56.7987C222.789 56.9596 225.669 57.7641 228.861 58.5687C238.359 60.8213 255.407 66.9357 257.275 68.7056C257.665 69.1079 258.599 69.4297 259.299 69.4297C260.545 69.4297 260.467 69.0274 258.832 64.7635C256.497 58.7296 249.88 41.9151 249.335 40.6278C249.101 40.1451 248.712 39.6624 248.401 39.6624C248.167 39.6624 243.419 42.5587 237.891 46.0986Z"/>
</mask>
<path d="M237.891 46.0986C232.442 49.6385 227.771 52.5348 227.616 52.5348C226.759 52.5348 221.933 56.4769 222.4 56.7987C222.789 56.9596 225.669 57.7641 228.861 58.5687C238.359 60.8213 255.407 66.9357 257.275 68.7056C257.665 69.1079 258.599 69.4297 259.299 69.4297C260.545 69.4297 260.467 69.0274 258.832 64.7635C256.497 58.7296 249.88 41.9151 249.335 40.6278C249.101 40.1451 248.712 39.6624 248.401 39.6624C248.167 39.6624 243.419 42.5587 237.891 46.0986Z" fill="#E7FFF0" stroke="#00A551" stroke-width="10" mask="url(#path-9-inside-5_0_1)"/>
<mask id="path-10-inside-6_0_1" fill="white">
<path d="M119.891 50.8359C104.088 59.3638 104.944 58.6397 109.07 59.3638C110.938 59.6856 115.064 60.5706 118.256 61.4555C121.448 62.26 124.094 62.9037 124.172 62.7428C124.951 61.8578 131.723 45.1238 131.412 44.9628C131.256 44.8019 126.118 47.4569 119.891 50.8359Z"/>
</mask>
<path d="M119.891 50.8359C104.088 59.3638 104.944 58.6397 109.07 59.3638C110.938 59.6856 115.064 60.5706 118.256 61.4555C121.448 62.26 124.094 62.9037 124.172 62.7428C124.951 61.8578 131.723 45.1238 131.412 44.9628C131.256 44.8019 126.118 47.4569 119.891 50.8359Z" fill="#E7FFF0" stroke="#00A551" stroke-width="10" mask="url(#path-10-inside-6_0_1)"/>
<mask id="path-11-inside-7_0_1" fill="white">
<path d="M261.562 45.9281C261.562 46.2499 262.807 49.6289 264.364 53.3297C265.921 57.1109 267.322 60.8117 267.556 61.6162C267.867 62.7425 268.49 62.9034 270.825 62.5012C272.382 62.1794 274.173 61.6967 274.795 61.3749C275.418 61.053 278.376 60.329 281.257 59.7658C287.562 58.559 288.029 59.1222 273.083 50.9965C262.106 45.1235 261.562 44.8822 261.562 45.9281Z"/>
</mask>
<path d="M261.562 45.9281C261.562 46.2499 262.807 49.6289 264.364 53.3297C265.921 57.1109 267.322 60.8117 267.556 61.6162C267.867 62.7425 268.49 62.9034 270.825 62.5012C272.382 62.1794 274.173 61.6967 274.795 61.3749C275.418 61.053 278.376 60.329 281.257 59.7658C287.562 58.559 288.029 59.1222 273.083 50.9965C262.106 45.1235 261.562 44.8822 261.562 45.9281Z" fill="#E7FFF0" stroke="#00A551" stroke-width="10" mask="url(#path-11-inside-7_0_1)"/>
<mask id="path-12-inside-8_0_1" fill="white">
<path d="M184.498 62.6672C172.276 63.7936 145.497 70.9538 141.293 74.1719C140.904 74.4937 139.269 75.2982 137.79 75.8614C126.813 80.3667 108.519 93.9631 97.3095 106.111C77.4586 127.592 65.1588 153.819 60.7994 183.989C58.7754 197.988 58.7754 210.136 60.7215 222.686C62.2785 232.26 65.3923 245.615 66.1708 245.615C67.0271 245.615 68.4284 244.087 74.2669 236.766C77.6143 232.582 81.8958 227.272 83.6863 225.1C89.6805 217.779 121.753 174.335 126.113 167.577C126.736 166.531 127.981 164.761 128.915 163.635C133.508 157.681 133.508 157.52 130.784 147.786C126.269 132.017 125.801 129.04 126.736 124.294C127.203 121.96 128.37 118.742 129.305 117.214L130.939 114.398L132.652 116.007C133.586 116.972 134.598 117.696 134.91 117.696C135.221 117.696 136.311 116.248 137.401 114.478C138.49 112.708 140.203 110.697 141.215 110.054C142.928 108.847 143.317 108.847 144.952 109.973C145.964 110.617 147.676 112.628 148.688 114.398C150.79 117.938 151.88 118.34 153.359 116.49C154.994 114.478 156.006 115.122 158.03 119.466C161.3 126.546 160.599 132.741 155.15 146.659C154.916 147.303 153.904 150.199 152.97 153.015L151.257 158.083L153.359 162.267C154.527 164.52 156.24 167.657 157.174 169.186C158.03 170.714 159.353 173.047 160.054 174.415C161.222 176.507 165.581 183.426 169.473 189.299C172.198 193.321 177.725 200.16 178.27 200.16C178.815 200.16 185.977 193.885 190.57 189.299C191.816 188.092 194.54 184.874 196.72 182.139L200.69 177.07L199.6 173.772C199.055 171.921 197.498 167.335 196.175 163.554C192.438 153.095 192.205 152.21 192.127 147.061C192.049 143.28 192.516 141.028 194.073 137.488C196.253 132.58 196.953 132.419 199.756 136.12C200.534 137.085 200.924 136.844 202.013 134.511C203.493 131.534 207.618 127.351 209.02 127.351C210.343 127.351 214.625 132.258 215.637 134.913L216.493 137.246L218.206 135.476C219.218 134.591 220.385 133.787 220.775 133.787C221.164 133.787 222.409 135.396 223.421 137.407C225.056 140.464 225.367 142.154 225.29 147.303C225.29 151.165 224.823 154.543 224.044 156.313C223.343 157.842 221.475 163.071 219.918 167.899L217.116 176.587L220.463 181.173C224.433 186.563 244.129 207.159 246.542 208.527C248.099 209.331 248.799 208.929 253.548 203.941C260.943 196.379 265.303 190.747 264.914 189.299C264.68 188.655 263.357 185.035 261.878 181.254C258.842 173.369 256.117 163.715 256.117 160.738C256.117 158.325 258.919 150.682 260.399 149.153C261.411 148.107 261.8 148.188 263.435 149.797L265.303 151.567L266.86 148.912C267.716 147.464 269.507 145.211 270.752 144.004C273.01 141.752 273.165 141.752 275.112 143.039C276.201 143.763 278.07 146.016 279.315 147.946L281.651 151.486L283.675 149.797C284.842 148.831 285.932 148.188 286.088 148.349C287.645 150.038 290.37 158.486 290.37 161.784C290.37 165.324 284.998 182.702 282.585 187.046C282.196 187.851 281.806 189.057 281.806 189.782C281.806 191.069 286.555 198.229 289.513 201.528C291.382 203.619 292.394 204.826 298.543 213.032C301.657 217.135 304.849 221.158 305.628 222.043C306.484 222.928 309.598 226.629 312.712 230.41C320.808 240.225 326.802 246.178 327.269 244.73C327.425 244.087 327.97 242.317 328.514 240.788C330.85 233.547 333.185 215.285 333.185 204.343C333.185 188.333 328.982 163.715 324.934 155.589C324.311 154.463 323.844 153.095 323.844 152.532C323.844 151.567 317.071 136.683 315.125 133.385C305.316 116.811 296.442 106.031 282.974 94.6067C274.411 87.366 275.501 88.1705 269.117 84.0675C248.332 70.5515 224.511 63.15 200.067 62.5868C193.45 62.5063 186.444 62.5063 184.498 62.6672Z"/>
</mask>
<path d="M184.498 62.6672C172.276 63.7936 145.497 70.9538 141.293 74.1719C140.904 74.4937 139.269 75.2982 137.79 75.8614C126.813 80.3667 108.519 93.9631 97.3095 106.111C77.4586 127.592 65.1588 153.819 60.7994 183.989C58.7754 197.988 58.7754 210.136 60.7215 222.686C62.2785 232.26 65.3923 245.615 66.1708 245.615C67.0271 245.615 68.4284 244.087 74.2669 236.766C77.6143 232.582 81.8958 227.272 83.6863 225.1C89.6805 217.779 121.753 174.335 126.113 167.577C126.736 166.531 127.981 164.761 128.915 163.635C133.508 157.681 133.508 157.52 130.784 147.786C126.269 132.017 125.801 129.04 126.736 124.294C127.203 121.96 128.37 118.742 129.305 117.214L130.939 114.398L132.652 116.007C133.586 116.972 134.598 117.696 134.91 117.696C135.221 117.696 136.311 116.248 137.401 114.478C138.49 112.708 140.203 110.697 141.215 110.054C142.928 108.847 143.317 108.847 144.952 109.973C145.964 110.617 147.676 112.628 148.688 114.398C150.79 117.938 151.88 118.34 153.359 116.49C154.994 114.478 156.006 115.122 158.03 119.466C161.3 126.546 160.599 132.741 155.15 146.659C154.916 147.303 153.904 150.199 152.97 153.015L151.257 158.083L153.359 162.267C154.527 164.52 156.24 167.657 157.174 169.186C158.03 170.714 159.353 173.047 160.054 174.415C161.222 176.507 165.581 183.426 169.473 189.299C172.198 193.321 177.725 200.16 178.27 200.16C178.815 200.16 185.977 193.885 190.57 189.299C191.816 188.092 194.54 184.874 196.72 182.139L200.69 177.07L199.6 173.772C199.055 171.921 197.498 167.335 196.175 163.554C192.438 153.095 192.205 152.21 192.127 147.061C192.049 143.28 192.516 141.028 194.073 137.488C196.253 132.58 196.953 132.419 199.756 136.12C200.534 137.085 200.924 136.844 202.013 134.511C203.493 131.534 207.618 127.351 209.02 127.351C210.343 127.351 214.625 132.258 215.637 134.913L216.493 137.246L218.206 135.476C219.218 134.591 220.385 133.787 220.775 133.787C221.164 133.787 222.409 135.396 223.421 137.407C225.056 140.464 225.367 142.154 225.29 147.303C225.29 151.165 224.823 154.543 224.044 156.313C223.343 157.842 221.475 163.071 219.918 167.899L217.116 176.587L220.463 181.173C224.433 186.563 244.129 207.159 246.542 208.527C248.099 209.331 248.799 208.929 253.548 203.941C260.943 196.379 265.303 190.747 264.914 189.299C264.68 188.655 263.357 185.035 261.878 181.254C258.842 173.369 256.117 163.715 256.117 160.738C256.117 158.325 258.919 150.682 260.399 149.153C261.411 148.107 261.8 148.188 263.435 149.797L265.303 151.567L266.86 148.912C267.716 147.464 269.507 145.211 270.752 144.004C273.01 141.752 273.165 141.752 275.112 143.039C276.201 143.763 278.07 146.016 279.315 147.946L281.651 151.486L283.675 149.797C284.842 148.831 285.932 148.188 286.088 148.349C287.645 150.038 290.37 158.486 290.37 161.784C290.37 165.324 284.998 182.702 282.585 187.046C282.196 187.851 281.806 189.057 281.806 189.782C281.806 191.069 286.555 198.229 289.513 201.528C291.382 203.619 292.394 204.826 298.543 213.032C301.657 217.135 304.849 221.158 305.628 222.043C306.484 222.928 309.598 226.629 312.712 230.41C320.808 240.225 326.802 246.178 327.269 244.73C327.425 244.087 327.97 242.317 328.514 240.788C330.85 233.547 333.185 215.285 333.185 204.343C333.185 188.333 328.982 163.715 324.934 155.589C324.311 154.463 323.844 153.095 323.844 152.532C323.844 151.567 317.071 136.683 315.125 133.385C305.316 116.811 296.442 106.031 282.974 94.6067C274.411 87.366 275.501 88.1705 269.117 84.0675C248.332 70.5515 224.511 63.15 200.067 62.5868C193.45 62.5063 186.444 62.5063 184.498 62.6672Z" fill="#E7FFF0" stroke="#00A551" stroke-width="10" mask="url(#path-12-inside-8_0_1)"/>
<mask id="path-13-inside-9_0_1" fill="white">
<path d="M293.485 66.2096C292.006 66.5314 288.658 67.3359 286.089 67.9795C283.52 68.7036 277.993 70.0713 273.867 71.1172L266.238 72.9676L271.376 76.2661C279.317 81.2541 287.958 87.9316 293.718 93.5633C296.599 96.2987 299.09 98.4709 299.245 98.31C299.557 97.9882 298.311 74.4157 297.688 68.7841C297.455 66.9337 297.066 65.4855 296.754 65.4855C296.443 65.566 294.964 65.8878 293.485 66.2096Z"/>
</mask>
<path d="M293.485 66.2096C292.006 66.5314 288.658 67.3359 286.089 67.9795C283.52 68.7036 277.993 70.0713 273.867 71.1172L266.238 72.9676L271.376 76.2661C279.317 81.2541 287.958 87.9316 293.718 93.5633C296.599 96.2987 299.09 98.4709 299.245 98.31C299.557 97.9882 298.311 74.4157 297.688 68.7841C297.455 66.9337 297.066 65.4855 296.754 65.4855C296.443 65.566 294.964 65.8878 293.485 66.2096Z" fill="#E7FFF0" stroke="#00A551" stroke-width="10" mask="url(#path-13-inside-9_0_1)"/>
<mask id="path-14-inside-10_0_1" fill="white">
<path d="M93.8826 78.8369C93.5712 85.8362 93.1042 93.0769 92.8706 94.9273C92.6371 96.8581 92.7149 98.3867 93.1042 98.3867C93.4934 98.3867 95.5953 96.6168 97.6971 94.525C104.392 88.0084 111.554 82.3768 121.051 76.1819C124.399 74.0097 125.955 72.6421 124.943 72.6421C124.165 72.6421 120.662 71.918 117.159 71.1135C113.734 70.2285 107.817 68.7804 104.081 67.8954C93.4934 65.3209 94.5054 64.1946 93.8826 78.8369Z"/>
</mask>
<path d="M93.8826 78.8369C93.5712 85.8362 93.1042 93.0769 92.8706 94.9273C92.6371 96.8581 92.7149 98.3867 93.1042 98.3867C93.4934 98.3867 95.5953 96.6168 97.6971 94.525C104.392 88.0084 111.554 82.3768 121.051 76.1819C124.399 74.0097 125.955 72.6421 124.943 72.6421C124.165 72.6421 120.662 71.918 117.159 71.1135C113.734 70.2285 107.817 68.7804 104.081 67.8954C93.4934 65.3209 94.5054 64.1946 93.8826 78.8369Z" fill="#E7FFF0" stroke="#00A551" stroke-width="10" mask="url(#path-14-inside-10_0_1)"/>
<mask id="path-15-inside-11_0_1" fill="white">
<path d="M75.4362 84.7071C70.1426 90.4996 65.7054 95.3268 65.5497 95.4877C65.4718 95.6486 67.0288 95.4877 69.0528 95.1658C71.1546 94.844 75.4362 94.2809 78.7058 93.9591L84.6221 93.4764L85.1671 84.1439C85.4006 78.995 85.5563 74.6506 85.4006 74.4897C85.2449 74.3288 80.7298 78.995 75.4362 84.7071Z"/>
</mask>
<path d="M75.4362 84.7071C70.1426 90.4996 65.7054 95.3268 65.5497 95.4877C65.4718 95.6486 67.0288 95.4877 69.0528 95.1658C71.1546 94.844 75.4362 94.2809 78.7058 93.9591L84.6221 93.4764L85.1671 84.1439C85.4006 78.995 85.5563 74.6506 85.4006 74.4897C85.2449 74.3288 80.7298 78.995 75.4362 84.7071Z" fill="#E7FFF0" stroke="#00A551" stroke-width="10" mask="url(#path-15-inside-11_0_1)"/>
<mask id="path-16-inside-12_0_1" fill="white">
<path d="M307.03 77.8005C307.263 79.9728 307.497 84.3976 307.497 87.6157V93.4082L313.569 93.9714C316.838 94.2932 321.198 94.8564 323.3 95.1782C325.324 95.5 326.958 95.5805 326.958 95.4195C326.958 95.2586 322.365 90.3511 316.76 84.4781L306.562 73.8584L307.03 77.8005Z"/>
</mask>
<path d="M307.03 77.8005C307.263 79.9728 307.497 84.3976 307.497 87.6157V93.4082L313.569 93.9714C316.838 94.2932 321.198 94.8564 323.3 95.1782C325.324 95.5 326.958 95.5805 326.958 95.4195C326.958 95.2586 322.365 90.3511 316.76 84.4781L306.562 73.8584L307.03 77.8005Z" fill="#E7FFF0" stroke="#00A551" stroke-width="10" mask="url(#path-16-inside-12_0_1)"/>
<mask id="path-17-inside-13_0_1" fill="white">
<path d="M80.5745 102.973C72.0892 103.617 60.2565 105.065 59.0888 105.548C57.7654 106.03 58.5438 109.731 64.8494 134.108L65.8614 138.131L69.2088 131.775C73.7239 123.328 81.0415 112.467 85.868 106.996C86.413 106.433 87.5028 105.146 88.2813 104.18L89.7604 102.41L86.7244 102.571C85.0896 102.652 82.2871 102.812 80.5745 102.973Z"/>
</mask>
<path d="M80.5745 102.973C72.0892 103.617 60.2565 105.065 59.0888 105.548C57.7654 106.03 58.5438 109.731 64.8494 134.108L65.8614 138.131L69.2088 131.775C73.7239 123.328 81.0415 112.467 85.868 106.996C86.413 106.433 87.5028 105.146 88.2813 104.18L89.7604 102.41L86.7244 102.571C85.0896 102.652 82.2871 102.812 80.5745 102.973Z" fill="#E7FFF0" stroke="#00A551" stroke-width="10" mask="url(#path-17-inside-13_0_1)"/>
<mask id="path-18-inside-14_0_1" fill="white">
<path d="M308.743 109.733C313.959 116.41 320.343 126.145 324.313 133.547C325.558 135.88 326.804 137.811 327.037 137.811C327.349 137.811 327.738 136.845 327.972 135.558C328.205 134.351 329.918 127.352 331.864 119.95C333.81 112.549 335.133 106.273 334.9 106.032C334.666 105.791 333.265 105.63 331.708 105.63C330.151 105.63 325.091 105.067 320.343 104.423C315.672 103.779 309.911 103.216 307.731 103.216H303.605L308.743 109.733Z"/>
</mask>
<path d="M308.743 109.733C313.959 116.41 320.343 126.145 324.313 133.547C325.558 135.88 326.804 137.811 327.037 137.811C327.349 137.811 327.738 136.845 327.972 135.558C328.205 134.351 329.918 127.352 331.864 119.95C333.81 112.549 335.133 106.273 334.9 106.032C334.666 105.791 333.265 105.63 331.708 105.63C330.151 105.63 325.091 105.067 320.343 104.423C315.672 103.779 309.911 103.216 307.731 103.216H303.605L308.743 109.733Z" fill="#E7FFF0" stroke="#00A551" stroke-width="10" mask="url(#path-18-inside-14_0_1)"/>
<mask id="path-19-inside-15_0_1" fill="white">
<path d="M141.997 116.734C140.985 117.377 137.794 123.974 137.794 125.422C137.794 127.273 136.315 127.434 134.68 125.744C131.332 122.285 130.71 125.905 133.045 135.962C133.823 139.421 135.458 145.053 136.626 148.432L138.806 154.707H142.776H146.824L149.393 146.42C150.794 141.915 152.273 137.329 152.585 136.203C153.519 133.146 153.986 127.192 153.441 125.101L152.974 123.17L151.105 125.262C150.016 126.388 148.926 127.353 148.692 127.353C148.381 127.353 147.68 125.744 147.135 123.894C146.045 119.71 143.243 115.849 141.997 116.734Z"/>
</mask>
<path d="M141.997 116.734C140.985 117.377 137.794 123.974 137.794 125.422C137.794 127.273 136.315 127.434 134.68 125.744C131.332 122.285 130.71 125.905 133.045 135.962C133.823 139.421 135.458 145.053 136.626 148.432L138.806 154.707H142.776H146.824L149.393 146.42C150.794 141.915 152.273 137.329 152.585 136.203C153.519 133.146 153.986 127.192 153.441 125.101L152.974 123.17L151.105 125.262C150.016 126.388 148.926 127.353 148.692 127.353C148.381 127.353 147.68 125.744 147.135 123.894C146.045 119.71 143.243 115.849 141.997 116.734Z" fill="#E7FFF0" stroke="#00A551" stroke-width="10" mask="url(#path-19-inside-15_0_1)"/>
<mask id="path-20-inside-16_0_1" fill="white">
<path d="M44.7633 129.923C41.5716 136.68 38.9248 142.473 38.9248 142.795C38.9248 143.278 51.3803 138.048 54.4942 136.278C55.8176 135.474 55.7397 132.577 54.0271 127.509C53.4821 125.659 52.7037 122.682 52.4701 120.912C52.1588 119.142 51.6917 117.694 51.3024 117.694C50.9132 117.694 47.955 123.245 44.7633 129.923Z"/>
</mask>
<path d="M44.7633 129.923C41.5716 136.68 38.9248 142.473 38.9248 142.795C38.9248 143.278 51.3803 138.048 54.4942 136.278C55.8176 135.474 55.7397 132.577 54.0271 127.509C53.4821 125.659 52.7037 122.682 52.4701 120.912C52.1588 119.142 51.6917 117.694 51.3024 117.694C50.9132 117.694 47.955 123.245 44.7633 129.923Z" fill="#E7FFF0" stroke="#00A551" stroke-width="10" mask="url(#path-20-inside-16_0_1)"/>
<mask id="path-21-inside-17_0_1" fill="white">
<path d="M339.493 124.688C337.002 134.906 336.691 136.997 337.936 136.997C338.481 136.997 340.349 137.721 342.062 138.526C343.853 139.411 346.655 140.698 348.368 141.503C350.08 142.307 352.104 143.192 352.805 143.514C354.362 144.318 354.206 143.836 349.691 134.182C348.056 130.642 345.643 125.493 344.398 122.757C343.152 119.941 341.906 117.689 341.673 117.689C341.361 117.689 340.427 120.826 339.493 124.688Z"/>
</mask>
<path d="M339.493 124.688C337.002 134.906 336.691 136.997 337.936 136.997C338.481 136.997 340.349 137.721 342.062 138.526C343.853 139.411 346.655 140.698 348.368 141.503C350.08 142.307 352.104 143.192 352.805 143.514C354.362 144.318 354.206 143.836 349.691 134.182C348.056 130.642 345.643 125.493 344.398 122.757C343.152 119.941 341.906 117.689 341.673 117.689C341.361 117.689 340.427 120.826 339.493 124.688Z" fill="#E7FFF0" stroke="#00A551" stroke-width="10" mask="url(#path-21-inside-17_0_1)"/>
<mask id="path-22-inside-18_0_1" fill="white">
<path d="M206.917 135.459C206.217 136.505 205.049 139.08 204.27 141.171C202.636 145.355 202.091 145.677 199.911 143.665C198.821 142.62 198.276 142.539 197.576 143.263C196.875 143.987 196.953 145.838 198.043 151.308C199.288 157.584 203.103 170.295 204.348 172.387C204.582 172.87 206.528 173.191 208.552 173.191H212.289L215.48 162.894C218.906 151.872 219.995 146.24 219.139 143.424L218.594 141.654L216.882 143.344C214.391 145.757 213.846 145.516 212.289 141.171C211.588 139.08 210.342 136.505 209.486 135.459L208.085 133.529L206.917 135.459Z"/>
</mask>
<path d="M206.917 135.459C206.217 136.505 205.049 139.08 204.27 141.171C202.636 145.355 202.091 145.677 199.911 143.665C198.821 142.62 198.276 142.539 197.576 143.263C196.875 143.987 196.953 145.838 198.043 151.308C199.288 157.584 203.103 170.295 204.348 172.387C204.582 172.87 206.528 173.191 208.552 173.191H212.289L215.48 162.894C218.906 151.872 219.995 146.24 219.139 143.424L218.594 141.654L216.882 143.344C214.391 145.757 213.846 145.516 212.289 141.171C211.588 139.08 210.342 136.505 209.486 135.459L208.085 133.529L206.917 135.459Z" fill="#E7FFF0" stroke="#00A551" stroke-width="10" mask="url(#path-22-inside-18_0_1)"/>
<mask id="path-23-inside-19_0_1" fill="white">
<path d="M57.2069 145.124C46.8533 149.79 44.7515 150.836 42.8053 151.801C41.7154 152.445 39.5357 153.33 37.9788 153.813C36.344 154.376 34.8649 155.18 34.5535 155.583C34.32 155.985 36.0326 159.364 38.368 162.984C47.6318 177.466 49.033 179.799 49.033 180.201C49.033 180.362 49.7337 181.488 50.5121 182.534L51.9912 184.465L52.8475 179.316C54.3266 170.627 58.4525 155.341 60.7101 150.273C62.5784 146.17 63.6682 142.63 63.2011 142.63C62.8898 142.63 60.243 143.756 57.2069 145.124Z"/>
</mask>
<path d="M57.2069 145.124C46.8533 149.79 44.7515 150.836 42.8053 151.801C41.7154 152.445 39.5357 153.33 37.9788 153.813C36.344 154.376 34.8649 155.18 34.5535 155.583C34.32 155.985 36.0326 159.364 38.368 162.984C47.6318 177.466 49.033 179.799 49.033 180.201C49.033 180.362 49.7337 181.488 50.5121 182.534L51.9912 184.465L52.8475 179.316C54.3266 170.627 58.4525 155.341 60.7101 150.273C62.5784 146.17 63.6682 142.63 63.2011 142.63C62.8898 142.63 60.243 143.756 57.2069 145.124Z" fill="#E7FFF0" stroke="#00A551" stroke-width="10" mask="url(#path-23-inside-19_0_1)"/>
<mask id="path-24-inside-20_0_1" fill="white">
<path d="M329.297 143.842C329.297 144.084 329.842 145.612 330.542 147.302C334.513 157.036 337.004 165.806 339.339 178.276L340.585 185.355L345.645 177.23C348.447 172.724 351.094 168.621 351.561 168.058C352.028 167.576 353.04 166.047 353.741 164.76C354.441 163.392 355.843 161.059 356.855 159.45L358.801 156.473L356.31 155.266C354.908 154.542 349.771 152.129 344.788 149.957C339.884 147.704 334.746 145.371 333.501 144.647C331.243 143.44 329.297 143.038 329.297 143.842Z"/>
</mask>
<path d="M329.297 143.842C329.297 144.084 329.842 145.612 330.542 147.302C334.513 157.036 337.004 165.806 339.339 178.276L340.585 185.355L345.645 177.23C348.447 172.724 351.094 168.621 351.561 168.058C352.028 167.576 353.04 166.047 353.741 164.76C354.441 163.392 355.843 161.059 356.855 159.45L358.801 156.473L356.31 155.266C354.908 154.542 349.771 152.129 344.788 149.957C339.884 147.704 334.746 145.371 333.501 144.647C331.243 143.44 329.297 143.038 329.297 143.842Z" fill="#E7FFF0" stroke="#00A551" stroke-width="10" mask="url(#path-24-inside-20_0_1)"/>
<mask id="path-25-inside-21_0_1" fill="white">
<path d="M271.917 150.039C271.45 150.603 270.36 153.177 269.348 155.671C268.336 158.246 267.246 160.337 266.857 160.337C266.546 160.337 265.845 159.613 265.3 158.728C263.509 155.752 262.342 156.797 262.342 161.303C262.342 165.164 263.354 169.428 267.558 183.105L268.959 187.771L273.163 187.53L277.366 187.289L278.845 182.864C282.348 172.164 284.139 164.843 284.139 161.142C284.139 156.717 282.816 155.832 280.869 158.889C279.546 160.981 278.3 160.337 277.678 157.28C277.133 154.625 274.175 149.074 273.24 149.074C272.929 149.074 272.306 149.557 271.917 150.039Z"/>
</mask>
<path d="M271.917 150.039C271.45 150.603 270.36 153.177 269.348 155.671C268.336 158.246 267.246 160.337 266.857 160.337C266.546 160.337 265.845 159.613 265.3 158.728C263.509 155.752 262.342 156.797 262.342 161.303C262.342 165.164 263.354 169.428 267.558 183.105L268.959 187.771L273.163 187.53L277.366 187.289L278.845 182.864C282.348 172.164 284.139 164.843 284.139 161.142C284.139 156.717 282.816 155.832 280.869 158.889C279.546 160.981 278.3 160.337 277.678 157.28C277.133 154.625 274.175 149.074 273.24 149.074C272.929 149.074 272.306 149.557 271.917 150.039Z" fill="#E7FFF0" stroke="#00A551" stroke-width="10" mask="url(#path-25-inside-21_0_1)"/>
<mask id="path-26-inside-22_0_1" fill="white">
<path d="M30.5162 174.181C29.3485 182.226 27.8694 195.823 28.1808 196.145C28.3365 196.306 30.0491 195.018 31.9174 193.168C33.8636 191.398 36.8996 188.582 38.6123 186.893L41.8818 183.835L37.0553 176.112C34.4864 171.848 32.151 168.389 31.8396 168.389C31.606 168.389 31.0611 171.044 30.5162 174.181Z"/>
</mask>
<path d="M30.5162 174.181C29.3485 182.226 27.8694 195.823 28.1808 196.145C28.3365 196.306 30.0491 195.018 31.9174 193.168C33.8636 191.398 36.8996 188.582 38.6123 186.893L41.8818 183.835L37.0553 176.112C34.4864 171.848 32.151 168.389 31.8396 168.389C31.606 168.389 31.0611 171.044 30.5162 174.181Z" fill="#E7FFF0" stroke="#00A551" stroke-width="10" mask="url(#path-26-inside-22_0_1)"/>
<mask id="path-27-inside-23_0_1" fill="white">
<path d="M357.318 174.559C355.45 177.536 353.27 181.156 352.414 182.605L350.935 185.179L352.803 187.029C358.875 193.063 363.779 197.408 364.091 197.005C364.636 196.442 362.067 171.583 361.288 170.215C360.899 169.41 359.653 170.778 357.318 174.559Z"/>
</mask>
<path d="M357.318 174.559C355.45 177.536 353.27 181.156 352.414 182.605L350.935 185.179L352.803 187.029C358.875 193.063 363.779 197.408 364.091 197.005C364.636 196.442 362.067 171.583 361.288 170.215C360.899 169.41 359.653 170.778 357.318 174.559Z" fill="#E7FFF0" stroke="#00A551" stroke-width="10" mask="url(#path-27-inside-23_0_1)"/>
<mask id="path-28-inside-24_0_1" fill="white">
<path d="M48.9589 189.382C47.4798 190.75 45.0666 193.003 43.5875 194.451C42.1084 195.818 37.749 199.841 33.9345 203.381L27.084 209.737L29.3415 211.828C30.5871 212.955 32.9225 214.885 34.5573 216.253C36.1921 217.54 38.2939 219.471 39.3059 220.356C40.3179 221.322 43.354 223.896 46.0786 225.988C48.8032 228.16 51.45 230.413 51.995 231.137C52.8513 232.183 52.9291 231.941 52.6177 229.528C50.9829 217.54 50.3602 204.909 51.1386 196.462C51.6057 191.393 51.9171 187.21 51.8393 187.13C51.7614 187.049 50.438 188.015 48.9589 189.382Z"/>
</mask>
<path d="M48.9589 189.382C47.4798 190.75 45.0666 193.003 43.5875 194.451C42.1084 195.818 37.749 199.841 33.9345 203.381L27.084 209.737L29.3415 211.828C30.5871 212.955 32.9225 214.885 34.5573 216.253C36.1921 217.54 38.2939 219.471 39.3059 220.356C40.3179 221.322 43.354 223.896 46.0786 225.988C48.8032 228.16 51.45 230.413 51.995 231.137C52.8513 232.183 52.9291 231.941 52.6177 229.528C50.9829 217.54 50.3602 204.909 51.1386 196.462C51.6057 191.393 51.9171 187.21 51.8393 187.13C51.7614 187.049 50.438 188.015 48.9589 189.382Z" fill="#E7FFF0" stroke="#00A551" stroke-width="10" mask="url(#path-28-inside-24_0_1)"/>
<mask id="path-29-inside-25_0_1" fill="white">
<path d="M341.515 200.314C341.748 207.796 341.515 214.876 340.658 221.795C340.035 227.588 339.568 232.334 339.646 232.495C339.802 232.576 345.718 227.829 352.802 221.956L365.725 211.336L360.587 206.509C357.784 203.935 354.748 201.038 353.814 200.153C350.156 196.613 341.904 189.292 341.515 189.292C341.281 189.292 341.281 194.28 341.515 200.314Z"/>
</mask>
<path d="M341.515 200.314C341.748 207.796 341.515 214.876 340.658 221.795C340.035 227.588 339.568 232.334 339.646 232.495C339.802 232.576 345.718 227.829 352.802 221.956L365.725 211.336L360.587 206.509C357.784 203.935 354.748 201.038 353.814 200.153C350.156 196.613 341.904 189.292 341.515 189.292C341.281 189.292 341.281 194.28 341.515 200.314Z" fill="#E7FFF0" stroke="#00A551" stroke-width="10" mask="url(#path-29-inside-25_0_1)"/>
<mask id="path-30-inside-26_0_1" fill="white">
<path d="M117.316 195.333C117.005 196.218 115.759 198.551 114.513 200.562C113.19 202.573 111.555 205.389 110.855 206.837C109.298 209.975 108.208 210.86 108.208 208.849C108.286 207.159 109.298 202.413 110.154 200.321C111.244 197.585 109.22 199.034 106.262 203.137C104.549 205.47 102.914 207.722 102.525 208.205C80.183 238.375 54.1043 266.372 29.349 286.807C18.7619 295.496 8.3304 302.978 2.95897 305.633L0.000792485 307.081V318.103C0.000792485 330.814 -0.232748 330.492 7.31839 329.607C15.1031 328.722 27.0915 325.102 36.1995 320.918C41.2596 318.505 49.5892 314.482 53.3258 312.632C79.3267 299.518 101.435 297.829 127.747 306.839C133.041 308.69 138.257 310.621 139.347 311.264C140.436 311.827 143.55 313.276 146.353 314.482C149.155 315.609 152.503 317.057 153.748 317.62C155.928 318.666 168.228 323.573 172.821 325.263C184.186 329.446 200.923 330.492 210.966 327.596C217.505 325.746 226.379 322.608 230.194 320.838C231.517 320.194 232.918 319.631 233.385 319.631C233.775 319.631 236.188 318.666 238.679 317.539C245.841 314.321 245.919 314.321 255.494 310.379C275.111 302.415 287.022 300.162 301.346 301.851C314.424 303.46 323.532 306.196 349.533 316.815C363.779 322.608 366.893 323.734 373.821 326.148C380.983 328.561 389.468 330.895 391.414 330.895C392.115 330.895 392.349 327.998 392.349 318.988V307.081L387.522 303.702C384.797 301.851 379.27 297.668 375.222 294.289C371.174 290.99 367.048 287.611 366.036 286.887C365.102 286.083 363.857 285.037 363.312 284.635C362.845 284.152 359.03 280.934 354.982 277.474C329.371 255.511 311.855 237.892 292.16 214.078C289.357 210.619 288.579 211.101 289.279 215.768C289.591 217.538 289.591 219.549 289.279 220.273C288.812 221.56 287.956 220.997 278.537 213.032C277.058 211.745 276.746 212.147 273.866 218.423C272.309 222.043 271.375 222.204 264.602 219.549C261.877 218.503 258.374 217.377 256.895 217.135C254.482 216.653 254.326 216.733 255.727 217.618C259.62 220.112 274.722 232.26 274.411 232.582C274.255 232.823 271.53 231.456 268.416 229.525C265.303 227.675 260.476 224.859 257.674 223.25C254.871 221.721 252.069 219.951 251.368 219.388C250.745 218.744 249.967 218.262 249.733 218.262C249.5 218.262 246.697 216.653 243.506 214.641C236.266 210.136 235.565 210.056 236.11 213.998C237.356 222.284 237.589 227.272 236.811 227.031C236.421 226.87 231.05 221.802 224.978 215.848C218.906 209.895 213.535 204.907 212.99 204.746C212.445 204.585 211.433 205.872 210.732 207.562C204.971 221.721 204.971 221.721 203.181 219.468C202.636 218.825 201.935 218.262 201.546 218.262C201.235 218.262 197.576 215.929 193.528 213.032C189.402 210.136 186.055 207.964 186.055 208.125C186.055 208.607 199.756 226.87 201.39 228.56C201.935 229.203 202.792 230.41 203.259 231.375C204.271 233.226 204.66 233.467 191.192 223.089C187.456 220.192 182.396 216.25 179.905 214.239C177.414 212.228 174.533 210.056 173.599 209.412C172.665 208.768 169.785 206.516 167.216 204.343C164.569 202.252 162.233 200.562 161.844 200.562C161.455 200.562 161.066 204.504 160.988 209.412L160.754 218.181L156.473 211.584C151.724 204.263 151.802 204.263 149.311 201.125L147.52 198.873L140.981 212.55C137.4 220.112 134.364 226.226 134.209 226.146C134.131 225.985 133.586 220.273 133.119 213.435C132.574 206.596 132.029 200.804 131.873 200.643C131.718 200.482 127.67 204.183 122.843 208.929C118.017 213.595 113.968 217.135 113.813 216.653C113.657 216.25 114.669 211.343 115.992 205.711C117.316 200.16 118.25 195.172 118.094 194.689C117.939 194.206 117.549 194.448 117.316 195.333Z"/>
</mask>
<path d="M117.316 195.333C117.005 196.218 115.759 198.551 114.513 200.562C113.19 202.573 111.555 205.389 110.855 206.837C109.298 209.975 108.208 210.86 108.208 208.849C108.286 207.159 109.298 202.413 110.154 200.321C111.244 197.585 109.22 199.034 106.262 203.137C104.549 205.47 102.914 207.722 102.525 208.205C80.183 238.375 54.1043 266.372 29.349 286.807C18.7619 295.496 8.3304 302.978 2.95897 305.633L0.000792485 307.081V318.103C0.000792485 330.814 -0.232748 330.492 7.31839 329.607C15.1031 328.722 27.0915 325.102 36.1995 320.918C41.2596 318.505 49.5892 314.482 53.3258 312.632C79.3267 299.518 101.435 297.829 127.747 306.839C133.041 308.69 138.257 310.621 139.347 311.264C140.436 311.827 143.55 313.276 146.353 314.482C149.155 315.609 152.503 317.057 153.748 317.62C155.928 318.666 168.228 323.573 172.821 325.263C184.186 329.446 200.923 330.492 210.966 327.596C217.505 325.746 226.379 322.608 230.194 320.838C231.517 320.194 232.918 319.631 233.385 319.631C233.775 319.631 236.188 318.666 238.679 317.539C245.841 314.321 245.919 314.321 255.494 310.379C275.111 302.415 287.022 300.162 301.346 301.851C314.424 303.46 323.532 306.196 349.533 316.815C363.779 322.608 366.893 323.734 373.821 326.148C380.983 328.561 389.468 330.895 391.414 330.895C392.115 330.895 392.349 327.998 392.349 318.988V307.081L387.522 303.702C384.797 301.851 379.27 297.668 375.222 294.289C371.174 290.99 367.048 287.611 366.036 286.887C365.102 286.083 363.857 285.037 363.312 284.635C362.845 284.152 359.03 280.934 354.982 277.474C329.371 255.511 311.855 237.892 292.16 214.078C289.357 210.619 288.579 211.101 289.279 215.768C289.591 217.538 289.591 219.549 289.279 220.273C288.812 221.56 287.956 220.997 278.537 213.032C277.058 211.745 276.746 212.147 273.866 218.423C272.309 222.043 271.375 222.204 264.602 219.549C261.877 218.503 258.374 217.377 256.895 217.135C254.482 216.653 254.326 216.733 255.727 217.618C259.62 220.112 274.722 232.26 274.411 232.582C274.255 232.823 271.53 231.456 268.416 229.525C265.303 227.675 260.476 224.859 257.674 223.25C254.871 221.721 252.069 219.951 251.368 219.388C250.745 218.744 249.967 218.262 249.733 218.262C249.5 218.262 246.697 216.653 243.506 214.641C236.266 210.136 235.565 210.056 236.11 213.998C237.356 222.284 237.589 227.272 236.811 227.031C236.421 226.87 231.05 221.802 224.978 215.848C218.906 209.895 213.535 204.907 212.99 204.746C212.445 204.585 211.433 205.872 210.732 207.562C204.971 221.721 204.971 221.721 203.181 219.468C202.636 218.825 201.935 218.262 201.546 218.262C201.235 218.262 197.576 215.929 193.528 213.032C189.402 210.136 186.055 207.964 186.055 208.125C186.055 208.607 199.756 226.87 201.39 228.56C201.935 229.203 202.792 230.41 203.259 231.375C204.271 233.226 204.66 233.467 191.192 223.089C187.456 220.192 182.396 216.25 179.905 214.239C177.414 212.228 174.533 210.056 173.599 209.412C172.665 208.768 169.785 206.516 167.216 204.343C164.569 202.252 162.233 200.562 161.844 200.562C161.455 200.562 161.066 204.504 160.988 209.412L160.754 218.181L156.473 211.584C151.724 204.263 151.802 204.263 149.311 201.125L147.52 198.873L140.981 212.55C137.4 220.112 134.364 226.226 134.209 226.146C134.131 225.985 133.586 220.273 133.119 213.435C132.574 206.596 132.029 200.804 131.873 200.643C131.718 200.482 127.67 204.183 122.843 208.929C118.017 213.595 113.968 217.135 113.813 216.653C113.657 216.25 114.669 211.343 115.992 205.711C117.316 200.16 118.25 195.172 118.094 194.689C117.939 194.206 117.549 194.448 117.316 195.333Z" fill="#E7FFF0" stroke="#00A551" stroke-width="10" mask="url(#path-30-inside-26_0_1)"/>
<mask id="path-31-inside-27_0_1" fill="white">
<path d="M28.8096 224.124C28.8096 225.25 29.3545 229.273 30.0551 233.215C30.7557 237.157 31.7677 242.869 32.2348 246.007L33.169 251.639L36.5164 245.605C38.3847 242.306 40.5644 238.445 41.4207 236.996L42.8998 234.422L38.0733 230.319C35.4265 227.986 32.7798 225.733 32.2348 225.25C28.8874 222.113 28.8096 222.113 28.8096 224.124Z"/>
</mask>
<path d="M28.8096 224.124C28.8096 225.25 29.3545 229.273 30.0551 233.215C30.7557 237.157 31.7677 242.869 32.2348 246.007L33.169 251.639L36.5164 245.605C38.3847 242.306 40.5644 238.445 41.4207 236.996L42.8998 234.422L38.0733 230.319C35.4265 227.986 32.7798 225.733 32.2348 225.25C28.8874 222.113 28.8096 222.113 28.8096 224.124Z" fill="#E7FFF0" stroke="#00A551" stroke-width="10" mask="url(#path-31-inside-27_0_1)"/>
<mask id="path-32-inside-28_0_1" fill="white">
<path d="M358.879 227.828C356.543 229.84 353.43 232.495 351.95 233.621C349.07 235.954 349.07 235.874 352.573 241.988C353.897 244.16 355.687 247.378 356.543 248.987C358.412 252.608 359.657 252.929 359.657 249.792C359.657 248.585 360.202 245.045 360.903 241.988C362.615 233.943 363.705 226.541 363.394 225.254C363.238 224.449 361.759 225.334 358.879 227.828Z"/>
</mask>
<path d="M358.879 227.828C356.543 229.84 353.43 232.495 351.95 233.621C349.07 235.954 349.07 235.874 352.573 241.988C353.897 244.16 355.687 247.378 356.543 248.987C358.412 252.608 359.657 252.929 359.657 249.792C359.657 248.585 360.202 245.045 360.903 241.988C362.615 233.943 363.705 226.541 363.394 225.254C363.238 224.449 361.759 225.334 358.879 227.828Z" fill="#E7FFF0" stroke="#00A551" stroke-width="10" mask="url(#path-32-inside-28_0_1)"/>
<mask id="path-33-inside-29_0_1" fill="white">
<path d="M52.1568 235.478C52.1568 236.041 51.534 237.409 50.7555 238.455C49.8992 239.5 48.1087 242.558 46.7075 245.213C45.3062 247.867 43.2822 251.488 42.3481 253.258C37.1323 262.59 37.0545 262.671 38.6114 263.877C39.312 264.441 41.1025 265.084 42.4259 265.406C44.6835 265.808 45.4619 265.326 51.6897 259.211C57.1389 253.821 58.3845 252.212 57.9953 250.844C57.7617 249.959 56.9833 247.224 56.3605 244.81C54.4143 237.087 53.4801 234.352 52.7795 234.352C52.4681 234.352 52.1568 234.834 52.1568 235.478Z"/>
</mask>
<path d="M52.1568 235.478C52.1568 236.041 51.534 237.409 50.7555 238.455C49.8992 239.5 48.1087 242.558 46.7075 245.213C45.3062 247.867 43.2822 251.488 42.3481 253.258C37.1323 262.59 37.0545 262.671 38.6114 263.877C39.312 264.441 41.1025 265.084 42.4259 265.406C44.6835 265.808 45.4619 265.326 51.6897 259.211C57.1389 253.821 58.3845 252.212 57.9953 250.844C57.7617 249.959 56.9833 247.224 56.3605 244.81C54.4143 237.087 53.4801 234.352 52.7795 234.352C52.4681 234.352 52.1568 234.834 52.1568 235.478Z" fill="#E7FFF0" stroke="#00A551" stroke-width="10" mask="url(#path-33-inside-29_0_1)"/>
<mask id="path-34-inside-30_0_1" fill="white">
<path d="M337.931 237.739C337.386 239.67 336.062 244.014 334.973 247.554L333.026 253.829L335.284 256.001C336.452 257.128 339.643 260.024 342.29 262.357L347.117 266.621L350.308 265.656C352.021 265.093 353.734 264.288 354.201 263.725C354.668 263.162 352.41 258.335 347.506 249.404C343.536 242.003 340.188 235.567 340.188 235.164C340.188 233.073 338.787 234.682 337.931 237.739Z"/>
</mask>
<path d="M337.931 237.739C337.386 239.67 336.062 244.014 334.973 247.554L333.026 253.829L335.284 256.001C336.452 257.128 339.643 260.024 342.29 262.357L347.117 266.621L350.308 265.656C352.021 265.093 353.734 264.288 354.201 263.725C354.668 263.162 352.41 258.335 347.506 249.404C343.536 242.003 340.188 235.567 340.188 235.164C340.188 233.073 338.787 234.682 337.931 237.739Z" fill="#E7FFF0" stroke="#00A551" stroke-width="10" mask="url(#path-34-inside-30_0_1)"/>
<mask id="path-35-inside-31_0_1" fill="white">
<path d="M83.6884 326.065C77.3828 327.111 63.4483 331.938 55.3522 335.88C51.6934 337.65 45.3878 340.707 41.4176 342.638C37.4474 344.569 34.0222 346.178 33.7887 346.178C33.5551 346.178 32.2317 346.741 30.9083 347.385C23.2015 351.086 4.59611 355.028 1.2487 353.741C0.0810025 353.258 -0.074691 356.959 0.158849 402.977C0.470236 458.006 0.158849 455.03 5.53028 463.316C10.4346 470.879 16.6624 474.821 27.0938 476.913C32.9323 478.119 40.0942 478.28 97.1559 477.878C132.109 477.717 163.17 477.798 166.206 478.2C179.44 479.728 190.961 489.383 195.788 502.979C196.644 505.393 196.878 505.554 196.878 503.945C196.955 500.807 201.548 492.923 205.83 488.578C211.824 482.464 219.064 478.843 226.849 478.2C230.274 477.878 261.568 477.717 296.21 477.878C365.416 478.28 366.973 478.2 375.847 473.534C381.997 470.316 387.758 463.477 390.249 456.478L392.351 450.685V402.977V355.269L389.471 354.384C387.836 353.982 385.267 353.338 383.788 353.016C379.273 352.131 370.242 349.074 358.098 344.247C356.619 343.604 350.859 341.351 345.254 339.098C331.553 333.627 322.756 330.651 312.558 327.996C305.24 326.145 302.36 325.824 293.096 325.824C287.102 325.824 280.796 326.226 279.084 326.709C277.371 327.191 273.946 328.157 271.455 328.8C267.251 329.927 253.394 335.156 247.945 337.731C246.622 338.374 242.807 339.983 239.382 341.351C235.957 342.719 232.142 344.328 230.819 344.971C229.573 345.534 224.124 347.546 218.753 349.477L209.022 353.016H196.566C183.254 353.016 183.099 352.936 167.763 347.546C163.948 346.258 160.445 344.891 159.978 344.569C159.589 344.247 157.799 343.523 156.086 342.96C154.373 342.397 152.116 341.512 151.026 340.949C149.936 340.385 147.367 339.179 145.187 338.294C143.086 337.409 139.271 335.719 136.702 334.593C134.211 333.467 131.798 332.501 131.408 332.501C130.941 332.501 129.54 331.938 128.217 331.294C126.816 330.731 122.223 329.203 117.941 328.076C109.144 325.743 92.0959 324.778 83.6884 326.065Z"/>
</mask>
<path d="M83.6884 326.065C77.3828 327.111 63.4483 331.938 55.3522 335.88C51.6934 337.65 45.3878 340.707 41.4176 342.638C37.4474 344.569 34.0222 346.178 33.7887 346.178C33.5551 346.178 32.2317 346.741 30.9083 347.385C23.2015 351.086 4.59611 355.028 1.2487 353.741C0.0810025 353.258 -0.074691 356.959 0.158849 402.977C0.470236 458.006 0.158849 455.03 5.53028 463.316C10.4346 470.879 16.6624 474.821 27.0938 476.913C32.9323 478.119 40.0942 478.28 97.1559 477.878C132.109 477.717 163.17 477.798 166.206 478.2C179.44 479.728 190.961 489.383 195.788 502.979C196.644 505.393 196.878 505.554 196.878 503.945C196.955 500.807 201.548 492.923 205.83 488.578C211.824 482.464 219.064 478.843 226.849 478.2C230.274 477.878 261.568 477.717 296.21 477.878C365.416 478.28 366.973 478.2 375.847 473.534C381.997 470.316 387.758 463.477 390.249 456.478L392.351 450.685V402.977V355.269L389.471 354.384C387.836 353.982 385.267 353.338 383.788 353.016C379.273 352.131 370.242 349.074 358.098 344.247C356.619 343.604 350.859 341.351 345.254 339.098C331.553 333.627 322.756 330.651 312.558 327.996C305.24 326.145 302.36 325.824 293.096 325.824C287.102 325.824 280.796 326.226 279.084 326.709C277.371 327.191 273.946 328.157 271.455 328.8C267.251 329.927 253.394 335.156 247.945 337.731C246.622 338.374 242.807 339.983 239.382 341.351C235.957 342.719 232.142 344.328 230.819 344.971C229.573 345.534 224.124 347.546 218.753 349.477L209.022 353.016H196.566C183.254 353.016 183.099 352.936 167.763 347.546C163.948 346.258 160.445 344.891 159.978 344.569C159.589 344.247 157.799 343.523 156.086 342.96C154.373 342.397 152.116 341.512 151.026 340.949C149.936 340.385 147.367 339.179 145.187 338.294C143.086 337.409 139.271 335.719 136.702 334.593C134.211 333.467 131.798 332.501 131.408 332.501C130.941 332.501 129.54 331.938 128.217 331.294C126.816 330.731 122.223 329.203 117.941 328.076C109.144 325.743 92.0959 324.778 83.6884 326.065Z" fill="#E7FFF0" stroke="#00A551" stroke-width="10" mask="url(#path-35-inside-31_0_1)"/>
</svg>
