<svg width="99" height="16" viewBox="0 0 99 16" fill="none" xmlns="http://www.w3.org/2000/svg">
<g clip-path="url(#clip0_2297_2882)">
<path d="M64.6198 0.368111H56.5198C56.4298 0.368111 56.3848 0.41422 56.3848 0.506439C56.1598 4.24131 55.4848 8.29895 54.4948 11.5727V11.711C54.5398 11.7572 54.5848 11.7572 54.6298 11.7572H57.4198C57.4648 11.7572 57.5548 11.711 57.5548 11.6649C58.3198 9.12892 58.9498 5.80903 59.1748 2.99635H61.8298V11.6188C61.8298 11.711 61.8748 11.7572 61.9648 11.7572H64.6198C64.7098 11.7572 64.7548 11.711 64.7548 11.6188V0.552549C64.7548 0.46033 64.7098 0.368111 64.6198 0.368111ZM98.8648 0.368111H96.2098C96.1198 0.368111 96.0748 0.41422 96.0748 0.506439V9.08281C95.4898 9.26725 94.9048 9.31336 94.2748 9.31336C92.5198 9.31336 92.1148 8.76004 92.1148 6.36235V0.552549C92.1148 0.46033 92.0698 0.41422 91.9798 0.41422H89.3248C89.2348 0.41422 89.1898 0.46033 89.1898 0.552549V6.73122C89.1898 10.6044 90.4498 12.126 93.7348 12.126C95.5798 12.126 97.6948 11.6188 98.9098 11.1577C98.9548 11.1577 98.9998 11.0655 98.9998 11.0194V0.552549C98.9998 0.46033 98.9548 0.368111 98.8648 0.368111ZM42.8398 0.41422H40.1398C40.0498 0.41422 40.0048 0.46033 40.0048 0.506439C39.5998 2.21249 38.7448 5.07128 37.5748 8.0684L34.8748 0.46033C34.8748 0.41422 34.7848 0.368111 34.7398 0.368111H32.0398C31.9948 0.368111 31.9498 0.41422 31.9048 0.41422C31.8598 0.46033 31.8598 0.506439 31.9048 0.552549L35.9548 11.8955C35.5498 12.7716 35.1448 13.5093 34.7848 14.201C34.5148 14.7082 34.2448 15.2154 33.9748 15.7687C33.9298 15.8148 33.9748 15.8609 33.9748 15.907C34.0198 15.9531 34.0648 15.9992 34.1098 15.9992H37.0348C37.0798 15.9992 37.1248 15.9531 37.1698 15.907C37.6648 14.9387 38.2948 13.5554 38.8798 12.1721C40.5898 8.02229 41.9848 4.14909 43.0198 0.598658C43.0198 0.552549 43.0198 0.506439 42.9748 0.46033C42.9298 0.41422 42.8848 0.41422 42.8398 0.41422ZM52.4698 9.12892C52.4698 9.08281 52.4248 9.0367 52.3798 9.0367H52.2448C51.6148 9.26725 50.3998 9.49779 49.5448 9.49779C47.6998 9.49779 46.8448 8.99059 46.8448 6.08569C46.8448 3.78021 47.1148 2.67359 49.5448 2.67359C50.2198 2.67359 50.8948 2.7658 51.7048 3.04246C51.7948 3.04246 51.8398 3.04246 51.8848 2.95024C52.1998 2.35082 52.5598 1.65918 52.9648 0.736987V0.598658C52.9648 0.552549 52.9198 0.506439 52.8748 0.506439C51.7948 0.137563 50.4898 -0.046875 49.3648 -0.046875C45.4948 -0.046875 43.7848 1.79751 43.7848 5.99347C43.7848 10.2355 45.4948 12.126 49.3648 12.126C50.3098 12.126 52.2448 11.8955 53.1448 11.5266C53.2348 11.4805 53.2348 11.4344 53.2348 11.3422L52.4698 9.12892ZM77.6248 0.41422H74.9248C74.8798 0.41422 74.7898 0.46033 74.7898 0.506439C74.3848 2.21249 73.5298 5.07128 72.3598 8.0684L69.6598 0.46033C69.6598 0.41422 69.5698 0.368111 69.5248 0.368111H66.8248C66.7798 0.368111 66.7348 0.41422 66.6898 0.41422C66.6448 0.46033 66.6448 0.506439 66.6898 0.552549L70.7398 11.8955C70.3348 12.7716 69.9298 13.4632 69.5698 14.201C69.2998 14.7082 69.0298 15.2154 68.7598 15.7687C68.7148 15.8148 68.7598 15.8609 68.7598 15.907C68.8048 15.9531 68.8498 15.9992 68.8948 15.9992H71.8198C71.8648 15.9992 71.9098 15.9531 71.9548 15.907C72.4498 14.9387 73.0798 13.5554 73.6648 12.1721C75.3748 8.02229 76.7698 4.14909 77.7598 0.598658C77.7598 0.552549 77.7598 0.506439 77.7148 0.46033C77.7148 0.41422 77.6698 0.41422 77.6248 0.41422ZM87.5248 0.368111H79.6948C79.6048 0.368111 79.5598 0.41422 79.5598 0.506439V11.6188C79.5598 11.711 79.6048 11.7572 79.6948 11.7572H82.3498C82.4398 11.7572 82.4848 11.711 82.4848 11.6188V3.04246H86.5798C86.6248 3.04246 86.7148 2.99635 86.7148 2.95024C87.0298 2.21249 87.3448 1.38252 87.6598 0.598658V0.46033C87.6148 0.41422 87.5698 0.368111 87.5248 0.368111Z" fill="#EE3F58"/>
<path d="M14.085 9.59078C12.33 9.59078 11.79 9.08357 11.79 6.08646C11.79 2.85879 12.375 2.58213 14.085 2.58213C15.795 2.58213 16.425 2.85879 16.425 6.08646C16.425 9.12968 15.84 9.59078 14.085 9.59078ZM14.085 0.0461095C10.26 0.0461095 8.775 1.70605 8.775 6.04035C8.775 10.4207 10.26 12.1268 14.085 12.1268C17.91 12.1268 19.44 10.4207 19.44 6.04035C19.44 1.75216 17.91 0.0461095 14.085 0.0461095ZM29.97 9.12968C29.97 9.08357 29.925 9.03746 29.88 9.03746H29.745C29.115 9.26801 27.9 9.49856 27.045 9.49856C25.2 9.49856 24.345 8.99135 24.345 6.08646C24.345 3.78098 24.615 2.67435 27.045 2.67435C27.72 2.67435 28.395 2.76657 29.205 3.04323C29.25 3.04323 29.34 3.04323 29.385 2.95101C29.7 2.35159 30.06 1.65994 30.465 0.737752V0.599424C30.465 0.553314 30.42 0.507205 30.375 0.507205C29.34 0.184438 28.035 0 26.91 0C23.04 0 21.33 1.84438 21.33 6.04035C21.33 10.2824 23.04 12.1729 26.91 12.1729C27.855 12.1729 29.79 11.9424 30.69 11.5735C30.78 11.5274 30.78 11.4813 30.78 11.389L29.97 9.12968ZM7.965 0.368876H0.135C0.045 0.368876 0 0.461095 0 0.553314V11.6657C0 11.7579 0.045 11.804 0.135 11.804H2.79C2.88 11.804 2.925 11.7579 2.925 11.6657V3.04323H7.02C7.065 3.04323 7.11 2.99712 7.155 2.95101C7.47 2.21326 7.785 1.38329 8.1 0.599424V0.461095C8.055 0.414986 8.01 0.368876 7.965 0.368876Z" fill="#0065B1"/>
</g>
<defs>
<clipPath id="clip0_2297_2882">
<rect width="99" height="16" fill="white"/>
</clipPath>
</defs>
</svg>
