<svg width="650" height="217" viewBox="0 0 650 217" fill="none" xmlns="http://www.w3.org/2000/svg">
<g clip-path="url(#clip0_68_87851)">
<path d="M0 0H650V207C650 212.523 645.523 217 640 217H10C4.47715 217 0 212.523 0 207V0Z" fill="#E7FFF0"/>
<path d="M0 68.0331C0 68.0331 132.556 17.1931 218.557 28.6935C298.134 39.3349 325.177 105.025 405.155 112.352C506.124 121.603 650 28.6935 650 28.6935" stroke="#00A551" stroke-opacity="0.3" stroke-width="2"/>
<path d="M0 243.033C0 243.033 132.556 192.193 218.557 203.693C298.134 214.335 325.177 280.025 405.155 287.352C506.124 296.603 650 203.693 650 203.693" stroke="#00A551" stroke-opacity="0.3" stroke-width="2"/>
<path d="M0 217.033C0 217.033 132.556 166.193 218.557 177.693C298.134 188.335 325.177 254.025 405.155 261.352C506.124 270.603 650 177.693 650 177.693" stroke="#00A551" stroke-opacity="0.3" stroke-width="2"/>
<path d="M0 173.033C0 173.033 132.556 122.193 218.557 133.693C298.134 144.335 325.177 210.025 405.155 217.352C506.124 226.603 650 133.693 650 133.693" stroke="#00A551" stroke-opacity="0.3" stroke-width="2"/>
<path d="M0 133.033C0 133.033 132.556 82.1931 218.557 93.6935C298.134 104.335 325.177 170.025 405.155 177.352C506.124 186.603 650 93.6935 650 93.6935" stroke="#00A551" stroke-opacity="0.3" stroke-width="2"/>
<path d="M0 112.033C0 112.033 132.556 61.1931 218.557 72.6935C298.134 83.3349 325.177 149.025 405.155 156.352C506.124 165.603 650 72.6935 650 72.6935" stroke="#00A551" stroke-opacity="0.3" stroke-width="2"/>
</g>
<defs>
<clipPath id="clip0_68_87851">
<path d="M0 0H650V207C650 212.523 645.523 217 640 217H10C4.47715 217 0 212.523 0 207V0Z" fill="white"/>
</clipPath>
</defs>
</svg>
