<svg width="19" height="21" viewBox="0 0 19 21" fill="none" xmlns="http://www.w3.org/2000/svg">
<path d="M7.49255 10.5H17.2426" stroke="black" stroke-width="2" stroke-linecap="round" stroke-linejoin="round"/>
<path d="M13.5 17.25V19.5H1.5V1.5H13.5V3.75H15V0.75C15 0.551088 14.921 0.360322 14.7803 0.21967C14.6397 0.0790176 14.4489 0 14.25 0H0.75C0.551088 0 0.360322 0.0790176 0.21967 0.21967C0.0790178 0.360322 0 0.551088 0 0.75V20.25C0 20.4489 0.0790178 20.6397 0.21967 20.7803C0.360322 20.921 0.551088 21 0.75 21H14.25C14.4489 21 14.6397 20.921 14.7803 20.7803C14.921 20.6397 15 20.4489 15 20.25V17.25H13.5Z" fill="black"/>
<path d="M17.2426 10.5L14.2426 13.5" stroke="black" stroke-width="2" stroke-linecap="round" stroke-linejoin="round"/>
<path d="M17.2426 10.5L14.2426 7.5" stroke="black" stroke-width="2" stroke-linecap="round" stroke-linejoin="round"/>
<path d="M14.2426 4.5675V3.0675" stroke="black" stroke-width="2" stroke-linecap="round" stroke-linejoin="round"/>
<path d="M14.2426 18V16.5" stroke="black" stroke-width="2" stroke-linecap="round" stroke-linejoin="round"/>
</svg>
