<svg width="597" height="213" viewBox="0 0 597 213" fill="none" xmlns="http://www.w3.org/2000/svg">
<g clip-path="url(#clip0_63_87809)">
<rect width="597" height="213" fill="#FEFEFE"/>
<g clip-path="url(#clip1_63_87809)">
<rect width="1728" height="1117" fill="#FEFEFE"/>
<path d="M507 113.5C412.5 201.501 295 63.5001 149.5 132C19 180.5 -92 188.979 -92 91.5002C-92 -5.97801 1.80798 -63 157 -63C221 -58.5 659.5 -59 507 113.5Z" fill="#E7FFF0"/>
<path d="M-19 170C-19 170 128.334 192.285 212.156 158.475C279.942 131.133 361 45 361 45" stroke="#E7FFF0" stroke-width="4"/>
<path d="M254.5 -21.5C254.5 -21.5 447.132 118.732 533.493 92.0649C603.332 70.4993 536.5 -54.5 536.5 -54.5" stroke="url(#paint0_linear_63_87809)" stroke-opacity="0.1" stroke-width="4"/>
<rect x="122" y="172.265" width="27" height="9" transform="rotate(-4.81259 122 172.265)" fill="#FEFEFE"/>
<path d="M216.709 28.434C216.381 28.0489 216.129 27.7305 215.735 27.4107C215.358 27.1052 215.015 26.7615 214.601 26.4964C214.292 26.2982 214.024 26.0369 213.737 25.8041C213.582 25.6786 213.432 25.5459 213.211 25.5596C213.018 25.5716 212.825 25.5828 212.632 25.5938C212.537 25.5914 212.442 25.5968 212.346 25.61C212.274 25.6141 212.202 25.6182 212.129 25.6223C211.742 25.6444 211.356 25.6348 210.975 25.5568C210.733 25.5071 210.495 25.4361 210.254 25.376C210.151 25.3503 210.092 25.2976 210.082 25.1814C210.075 25.0998 210.031 25.0217 210.007 24.9412C209.977 24.8463 209.944 24.7515 209.928 24.6542C209.921 24.6144 209.945 24.5593 209.973 24.5261C210.041 24.4446 210.124 24.3749 210.194 24.2947C210.31 24.1631 210.376 24.1435 210.546 24.1949C210.583 24.2057 210.642 24.2142 210.661 24.1948C210.736 24.1152 210.718 24.0189 210.68 23.9267C210.678 23.9224 210.676 23.919 210.674 23.915C210.659 23.8673 210.623 23.8262 210.574 23.8067L210.493 23.7746C210.456 23.76 210.418 23.7595 210.382 23.77C210.352 23.7713 210.322 23.773 210.294 23.782C210.274 23.7884 210.255 23.7943 210.235 23.7995L210.202 23.8006C210.18 23.8012 210.16 23.8076 210.142 23.8177C210.138 23.8183 210.133 23.8189 210.128 23.8193C210.115 23.8181 210.1 23.8185 210.087 23.8207C210.01 23.8196 209.936 23.7962 209.864 23.7337C209.821 23.6966 209.753 23.668 209.698 23.6693C209.404 23.6764 209.148 23.7813 208.973 24.0249C208.883 24.151 208.822 24.2985 208.755 24.4399C208.632 24.6993 208.439 24.8227 208.203 24.7655C208.006 24.7178 207.802 24.675 207.623 24.5868C207.335 24.4453 207.048 24.2915 206.792 24.1006C206.375 23.7901 205.984 23.4449 205.581 23.1163C205.535 23.0785 205.481 23.0356 205.425 23.0253C205.155 22.9756 204.885 22.9172 204.612 22.8976C204.223 22.8699 203.829 22.8967 203.442 22.8571C203.013 22.8131 202.596 22.8773 202.174 22.9176C201.909 22.9431 201.647 23.0133 201.382 23.025C201.029 23.0406 200.674 23.0188 200.32 23.013L200.236 23.0493C200.262 23.0707 200.285 23.0944 200.313 23.113C200.385 23.1622 200.46 23.2068 200.53 23.2575C200.579 23.2924 200.621 23.3365 200.669 23.3723C200.697 23.3928 200.733 23.4015 200.762 23.421C200.929 23.5348 201.091 23.6589 201.301 23.6878C201.324 23.6909 201.342 23.7172 201.364 23.7264C201.505 23.7836 201.646 23.8382 201.787 23.8952C201.844 23.9185 201.898 23.9593 201.958 23.9687C202.107 23.9922 202.257 24.005 202.408 24.0167C202.46 24.0207 202.549 23.9872 202.562 24.0079C202.632 24.1193 202.747 24.0547 202.812 24.051C203.022 24.0392 203.232 24.1028 203.446 24.0281C203.588 23.9784 203.753 23.9889 203.908 23.9792C203.959 23.976 204.012 23.9907 204.063 24.002C204.2 24.0327 204.336 24.0832 204.474 24.0927C204.583 24.1 204.649 24.1508 204.716 24.2168C204.775 24.2737 204.833 24.3307 204.891 24.3873C204.915 24.4102 204.94 24.4316 204.964 24.4545C205.006 24.495 205.043 24.542 205.089 24.5756C205.144 24.6148 205.214 24.6343 205.265 24.6768C205.4 24.7887 205.525 24.9126 205.661 25.0239C205.678 25.038 205.696 25.0515 205.713 25.0653C205.785 25.1487 205.872 25.2146 205.97 25.258C205.999 25.2793 206.027 25.3006 206.055 25.3224C206.138 25.3868 206.207 25.4884 206.3 25.5172C206.474 25.571 206.548 25.7721 206.749 25.7874C206.809 25.792 206.858 25.8978 206.919 25.9498C206.947 25.9732 206.99 25.9781 207.026 25.9914C207.048 26.0207 207.08 26.0391 207.109 26.0604C207.172 26.1068 207.238 26.1507 207.296 26.2032C207.342 26.2448 207.373 26.3028 207.419 26.3446C207.473 26.3933 207.543 26.6248 207.531 26.6974C207.5 26.8964 207.456 27.0964 207.454 27.2964C207.449 27.8275 207.369 28.3263 206.972 28.7236C206.951 28.7447 206.943 28.8061 206.958 28.8303C207.015 28.9233 207.085 29.0088 207.15 29.098C207.068 29.2119 206.988 29.3223 206.909 29.4319C207.13 29.6227 207.13 29.6227 207.225 29.5121C207.307 29.5464 207.382 29.5774 207.473 29.6151C207.531 29.5359 207.608 29.4609 207.65 29.37C207.655 29.3577 207.661 29.3461 207.668 29.3349C207.706 29.2937 207.742 29.2506 207.776 29.2058C207.834 29.156 207.903 29.1184 207.975 29.082C208.079 29.0291 208.164 28.9633 208.16 28.8237C208.155 28.6284 208.214 28.4516 208.364 28.3175C208.526 28.1725 208.686 28.024 208.859 27.8921C209.069 27.732 209.26 27.5566 209.373 27.316C209.429 27.1961 209.532 27.1699 209.632 27.159C209.967 27.1225 210.304 27.1051 210.64 27.0747C210.827 27.0577 211.013 27.0254 211.2 27.0075C211.43 26.9855 211.661 26.9725 211.891 26.9527C211.958 26.947 212.023 26.9256 212.089 26.9214C212.188 26.9153 212.29 26.9341 212.384 26.9142C212.62 26.8644 212.859 26.8408 213.097 26.8587C213.192 26.8658 213.295 26.9097 213.374 26.9657C213.554 27.0929 213.722 27.2366 213.892 27.3762C214.059 27.5129 214.222 27.6553 214.391 27.7896C214.44 27.8282 214.503 27.8496 214.561 27.8748C214.618 27.8994 214.678 27.9178 214.736 27.9406C214.82 27.9739 214.903 28.0097 214.988 28.0421C215.016 28.0528 215.054 28.0473 215.075 28.0649C215.173 28.1509 215.275 28.2074 215.415 28.1926C215.47 28.1868 215.531 28.2294 215.587 28.2537C215.64 28.2763 215.688 28.3121 215.742 28.3279C215.936 28.3844 216.132 28.4349 216.322 28.4862C216.323 28.4912 216.319 28.4713 216.313 28.442C216.428 28.5408 216.357 28.4067 216.385 28.3881C216.467 28.5008 216.568 28.5726 216.711 28.5635C216.804 28.5465 216.754 28.4951 216.737 28.4516C216.728 28.4458 216.716 28.442 216.709 28.434Z" fill="#2A4437"/>
<path d="M223.141 27.362C222.997 26.9743 222.893 26.6591 222.68 26.3028C222.476 25.9624 222.309 25.6021 222.066 25.2825C221.884 25.0435 221.751 24.7675 221.596 24.5081C221.512 24.3683 221.434 24.2242 221.26 24.1728C221.109 24.1279 220.957 24.0823 220.806 24.0366C220.734 24.0082 220.659 23.9856 220.582 23.9689C220.526 23.9518 220.469 23.9347 220.412 23.9176C220.109 23.8259 219.815 23.7102 219.544 23.5436C219.372 23.4372 219.209 23.3159 219.041 23.2022C218.969 23.1535 218.938 23.0965 218.963 23.0045C218.981 22.9398 218.969 22.8676 218.973 22.7989C218.977 22.7178 218.978 22.6356 218.993 22.5563C218.999 22.5239 219.033 22.4883 219.063 22.4706C219.139 22.4272 219.222 22.3967 219.298 22.3549C219.424 22.2863 219.481 22.29 219.597 22.3771C219.622 22.3956 219.665 22.4188 219.685 22.4091C219.765 22.369 219.778 22.29 219.775 22.2085C219.775 22.2047 219.774 22.2015 219.773 22.1979C219.775 22.1569 219.759 22.1154 219.727 22.0866L219.674 22.0393C219.65 22.0179 219.62 22.0065 219.59 22.0046C219.566 21.9971 219.543 21.99 219.519 21.9892C219.502 21.9886 219.485 21.9876 219.469 21.9862L219.443 21.9776C219.426 21.972 219.409 21.9713 219.392 21.974C219.389 21.9732 219.385 21.9723 219.381 21.9713C219.371 21.9665 219.36 21.9629 219.349 21.9606C219.29 21.9384 219.24 21.8996 219.202 21.8313C219.179 21.7908 219.135 21.7498 219.092 21.7352C218.865 21.6582 218.639 21.667 218.436 21.8052C218.332 21.8768 218.243 21.9728 218.152 22.0626C217.985 22.2273 217.802 22.268 217.637 22.1578C217.499 22.066 217.354 21.9759 217.241 21.8578C217.06 21.6684 216.882 21.4696 216.739 21.2512C216.506 20.8958 216.303 20.5211 216.086 20.1556C216.061 20.1135 216.032 20.0656 215.992 20.042C215.798 19.928 215.607 19.8072 215.403 19.7156C215.112 19.5852 214.802 19.4954 214.516 19.3564C214.199 19.2023 213.86 19.1344 213.525 19.0472C213.314 18.9923 213.093 18.9727 212.886 18.9072C212.611 18.8202 212.344 18.7039 212.074 18.6002L211.999 18.6045C212.013 18.6281 212.024 18.6529 212.04 18.6749C212.082 18.7328 212.127 18.7881 212.167 18.8469C212.194 18.8874 212.214 18.9331 212.241 18.9741C212.257 18.9977 212.282 19.0146 212.299 19.0376C212.396 19.172 212.485 19.3126 212.638 19.3937C212.655 19.4024 212.661 19.4277 212.676 19.4411C212.768 19.5244 212.861 19.606 212.953 19.6892C212.991 19.7233 213.021 19.7698 213.064 19.7937C213.171 19.8536 213.284 19.9056 213.396 19.9568C213.435 19.9746 213.512 19.9736 213.516 19.9932C213.539 20.0984 213.645 20.0811 213.697 20.0966C213.861 20.1464 214.005 20.2543 214.19 20.2569C214.313 20.2587 214.437 20.3128 214.558 20.3488C214.599 20.3607 214.635 20.3869 214.671 20.4099C214.768 20.472 214.858 20.5489 214.962 20.595C215.043 20.631 215.079 20.6885 215.113 20.7582C215.142 20.8182 215.17 20.8783 215.199 20.9382C215.211 20.9624 215.224 20.9859 215.236 21.0101C215.257 21.053 215.272 21.0996 215.299 21.1385C215.33 21.184 215.378 21.2185 215.406 21.2655C215.478 21.3893 215.539 21.5196 215.612 21.6431C215.621 21.6588 215.631 21.6742 215.641 21.6896C215.672 21.7739 215.721 21.8489 215.784 21.9097C215.8 21.9341 215.816 21.9584 215.831 21.9831C215.877 22.0558 215.901 22.1532 215.965 22.2013C216.083 22.2916 216.084 22.4668 216.233 22.5347C216.278 22.5551 216.286 22.6504 216.319 22.7073C216.333 22.733 216.365 22.7489 216.389 22.7693C216.398 22.798 216.417 22.8209 216.433 22.8455C216.469 22.8989 216.507 22.9511 216.537 23.0077C216.561 23.0526 216.568 23.1058 216.592 23.1508C216.619 23.2033 216.608 23.4008 216.579 23.4533C216.499 23.5972 216.409 23.7386 216.352 23.8916C216.199 24.2981 215.997 24.6588 215.581 24.8528C215.559 24.863 215.535 24.9077 215.54 24.9306C215.558 25.0181 215.587 25.1033 215.613 25.1902C215.518 25.2546 215.425 25.317 215.334 25.3789C215.45 25.5875 215.45 25.5875 215.554 25.5292C215.608 25.5787 215.656 25.6234 215.715 25.6778C215.783 25.6335 215.862 25.5973 215.92 25.5392C215.928 25.5313 215.936 25.5242 215.944 25.5173C215.985 25.4965 216.025 25.4735 216.063 25.4484C216.122 25.4267 216.185 25.417 216.25 25.4092C216.346 25.398 216.429 25.371 216.465 25.2628C216.516 25.1114 216.611 24.9921 216.764 24.9312C216.929 24.8654 217.094 24.7962 217.264 24.7434C217.47 24.6792 217.666 24.5982 217.82 24.445C217.897 24.3687 217.983 24.3775 218.063 24.3971C218.33 24.4631 218.594 24.5443 218.86 24.6151C219.009 24.6547 219.161 24.682 219.31 24.7208C219.493 24.7684 219.674 24.8232 219.856 24.8725C219.909 24.8868 219.965 24.8887 220.017 24.9041C220.094 24.927 220.167 24.9702 220.246 24.9814C220.441 25.0094 220.63 25.058 220.809 25.1387C220.88 25.1709 220.947 25.2335 220.992 25.2987C221.094 25.4467 221.182 25.6042 221.274 25.7593C221.364 25.9112 221.449 26.0661 221.541 26.2167C221.568 26.26 221.61 26.2942 221.648 26.33C221.685 26.3648 221.726 26.3956 221.764 26.4294C221.819 26.4786 221.873 26.5295 221.929 26.5781C221.947 26.5942 221.979 26.6008 221.989 26.6199C222.04 26.7136 222.103 26.7856 222.215 26.8136C222.258 26.8245 222.293 26.8743 222.33 26.9089C222.364 26.9409 222.391 26.9819 222.428 27.0091C222.561 27.1071 222.698 27.2009 222.829 27.2936C222.828 27.2977 222.831 27.2812 222.834 27.2571C222.895 27.3653 222.878 27.2422 222.905 27.2359C222.936 27.3455 222.993 27.4289 223.106 27.4619C223.182 27.4751 223.158 27.4216 223.158 27.3835C223.152 27.3765 223.144 27.3702 223.141 27.362Z" fill="#979797"/>
<path d="M252.5 47L252.44 47.0797L252.5 47.1254L252.56 47.0797L252.5 47ZM252.5 47C252.56 47.0797 252.56 47.0797 252.56 47.0797L252.561 47.0795L252.561 47.0789L252.564 47.0767L252.575 47.0682L252.618 47.0351C252.655 47.0059 252.709 46.9628 252.778 46.9063C252.916 46.7935 253.113 46.6278 253.348 46.4153C253.819 45.9906 254.448 45.3787 255.077 44.6301C256.331 43.1363 257.6 41.082 257.6 38.875C257.6 36.1248 255.314 33.9 252.5 33.9C249.686 33.9 247.4 36.1248 247.4 38.875C247.4 41.0777 248.669 43.132 249.923 44.6268C250.552 45.376 251.181 45.9887 251.652 46.4141C251.887 46.6268 252.084 46.7929 252.222 46.9059C252.291 46.9624 252.345 47.0057 252.382 47.0349L252.425 47.0681L252.436 47.0767L252.438 47.0789L252.439 47.0794L252.439 47.0796C252.44 47.0796 252.44 47.0797 252.5 47ZM252.5 36.0667C250.916 36.0667 249.622 37.324 249.622 38.875C249.622 40.426 250.916 41.6833 252.5 41.6833C254.084 41.6833 255.378 40.426 255.378 38.875C255.378 37.324 254.084 36.0667 252.5 36.0667ZM252.515 39.3085C252.285 39.2734 252.134 39.0981 252.131 38.8737C252.128 38.646 252.281 38.4628 252.515 38.4272C252.784 38.3861 253.045 38.613 253.041 38.8737C253.038 39.1318 252.782 39.3492 252.515 39.3085ZM252.5 35.1833C254.592 35.1833 256.289 36.8418 256.289 38.875C256.289 40.2732 255.646 41.6418 254.837 42.8092C254.056 43.9348 253.128 44.8636 252.495 45.438C251.761 44.7718 250.83 43.7924 250.075 42.6609C249.296 41.4933 248.711 40.1739 248.711 38.875C248.711 36.8418 250.408 35.1833 252.5 35.1833Z" fill="#00A551" stroke="#00A551" stroke-width="0.2"/>
<path d="M311.062 90V86.4706H310C309.448 86.4706 309 86.0229 309 85.4706V79C309 78.4477 309.448 78 310 78H319C319.552 78 320 78.4477 320 79V85.4706C320 86.0229 319.552 86.4706 319 86.4706H314.5L311.062 90Z" stroke="#F2B600" stroke-width="2" stroke-linecap="round" stroke-linejoin="round"/>
<path d="M138.255 34.0633L138.255 34.0634L141.755 38.8235C141.755 38.8236 141.756 38.8237 141.756 38.8238C142.322 39.5857 142.67 40.498 142.76 41.4558C142.851 42.4135 142.681 43.3787 142.269 44.2405C142.268 44.2407 142.268 44.241 142.268 44.2412L142.133 44.1765L138.255 34.0633ZM138.255 34.0633L138.252 34.0588M138.255 34.0633L138.252 34.0588M138.252 34.0588C138.2 33.9941 138.135 33.9415 138.061 33.9052C137.987 33.8689 137.905 33.85 137.823 33.85C137.741 33.85 137.659 33.8689 137.585 33.9052C137.511 33.9415 137.446 33.9941 137.395 34.0588L137.394 34.0587M138.252 34.0588L137.394 34.0587M137.394 34.0587L137.391 34.0634M137.394 34.0587L137.391 34.0634M137.391 34.0634L133.891 38.8233M137.391 34.0634L133.891 38.8233M133.891 38.8233C133.891 38.8235 133.891 38.8236 133.891 38.8237L133.891 38.8233ZM141.692 41.561C141.762 42.3047 141.629 43.0534 141.31 43.7212L141.296 43.7182C140.989 44.4096 140.497 44.9932 139.882 45.3999C139.266 45.8066 138.552 46.0193 137.824 46.0135L137.821 46.0135C137.097 46.0211 136.386 45.8126 135.77 45.4118C135.155 45.0109 134.662 44.4343 134.35 43.7493L134.35 43.7493L134.348 43.7459C134.02 43.0719 133.883 42.3139 133.954 41.561C134.024 40.8081 134.299 40.0924 134.746 39.4977L134.746 39.4977L134.747 39.4966L137.823 35.3138L140.9 39.4966L140.9 39.4966L140.9 39.4977C141.347 40.0924 141.622 40.8081 141.692 41.561ZM140.132 44.5061C140.743 43.8692 141.085 43.0066 141.085 42.1084C141.085 41.963 141.029 41.8224 140.929 41.7178C140.829 41.613 140.691 41.5529 140.546 41.5529C140.401 41.5529 140.263 41.613 140.163 41.7178C140.062 41.8224 140.007 41.963 140.007 42.1084C140.007 42.7159 139.775 43.2973 139.365 43.725C138.955 44.1525 138.4 44.3914 137.823 44.3914C137.678 44.3914 137.54 44.4516 137.44 44.5564C137.339 44.661 137.284 44.8016 137.284 44.947C137.284 45.0923 137.339 45.2329 137.44 45.3375C137.54 45.4424 137.678 45.5025 137.823 45.5025C138.69 45.5025 139.52 45.1433 140.132 44.5061Z" fill="#3BB3F7" stroke="#3BB3F7" stroke-width="0.3"/>
</g>
<path d="M101.397 45.1386L101.4 46.9785L88.4858 46.9965L88.4832 45.1567L101.397 45.1386ZM88.8465 45.1562L88.8549 51.1913L86.6167 51.1944L86.5965 45.1593L88.8465 45.1562ZM103.366 45.1359L103.351 51.1593L101.113 51.1625L101.104 45.139L103.366 45.1359ZM99.1612 29.9191L99.1638 31.7706L91.6872 31.7811L91.6846 29.9295L99.1612 29.9191ZM101.106 29.9164L101.13 46.9788L98.8803 46.982L98.8565 29.9195L101.106 29.9164ZM90.9112 29.9306L93.1729 29.9274L92.8309 36.7951C92.7855 37.8264 92.6892 38.7797 92.542 39.6549C92.3947 40.5223 92.2122 41.3155 91.9945 42.0346C91.7767 42.7536 91.5276 43.3985 91.2472 43.9692C90.9667 44.5321 90.6666 45.0208 90.3469 45.4353C90.0272 45.842 89.6917 46.1784 89.3405 46.4445C88.9971 46.7028 88.6497 46.8869 88.2983 46.9968L87.267 46.9982L87.2645 45.1584L87.991 45.1574C88.1939 44.9383 88.4239 44.6216 88.6811 44.2072C88.9462 43.7927 89.2071 43.2572 89.464 42.6006C89.7287 41.9362 89.9581 41.1273 90.152 40.1739C90.3538 39.2205 90.489 38.0953 90.5575 36.7983L90.9112 29.9306ZM105.318 40.7738L105.317 40.5042C105.316 39.5902 105.448 38.7423 105.712 37.9607C105.977 37.1713 106.359 36.4872 106.858 35.9083C107.357 35.3217 107.962 34.8677 108.672 34.5464C109.383 34.2173 110.179 34.0521 111.062 34.0509C111.953 34.0497 112.754 34.2126 113.465 34.5397C114.184 34.859 114.794 35.3113 115.295 35.8965C115.804 36.474 116.192 37.157 116.458 37.9457C116.725 38.7266 116.859 39.5741 116.86 40.4881L116.861 40.7576C116.862 41.6717 116.73 42.5196 116.466 43.3012C116.201 44.0828 115.816 44.7669 115.309 45.3536C114.809 45.9324 114.205 46.3864 113.494 46.7155C112.791 47.0368 111.995 47.198 111.104 47.1993C110.213 47.2005 109.412 47.0415 108.701 46.7222C107.99 46.395 107.38 45.9428 106.871 45.3654C106.37 44.7801 105.986 44.0971 105.72 43.3162C105.453 42.5353 105.319 41.6878 105.318 40.7738ZM107.485 40.5012L107.486 40.7707C107.487 41.4036 107.562 42.0011 107.711 42.5634C107.86 43.1179 108.083 43.6098 108.381 44.039C108.686 44.4683 109.066 44.8076 109.519 45.057C109.973 45.2985 110.5 45.4189 111.102 45.418C111.695 45.4172 112.215 45.2954 112.66 45.0526C113.112 44.802 113.487 44.4616 113.783 44.0315C114.08 43.6014 114.301 43.1089 114.449 42.554C114.605 41.9913 114.682 41.3935 114.681 40.7607L114.681 40.4912C114.68 39.8662 114.601 39.2764 114.444 38.722C114.295 38.1597 114.067 37.6639 113.762 37.2346C113.465 36.7975 113.089 36.4543 112.636 36.205C112.19 35.9556 111.666 35.8313 111.065 35.8321C110.471 35.833 109.948 35.9587 109.495 36.2093C109.05 36.46 108.675 36.8042 108.371 37.2422C108.075 37.6723 107.853 38.1687 107.706 38.7314C107.558 39.2863 107.484 39.8762 107.485 40.5012ZM128.22 34.2613L128.222 36.0543L121.812 36.0632L121.809 34.2703L128.22 34.2613ZM122.126 34.2698L122.144 46.9495L119.976 46.9525L119.958 34.2728L122.126 34.2698ZM130.141 34.2586L130.159 46.9383L127.98 46.9413L127.962 34.2617L130.141 34.2586ZM154.601 34.2244L154.603 36.0174L148.474 36.026L148.472 34.233L154.601 34.2244ZM156.511 34.2218L156.529 46.9015L154.361 46.9045L154.343 34.2248L156.511 34.2218ZM147.945 34.2337L150.124 34.2307L149.805 40.3483C149.751 41.2937 149.663 42.1298 149.539 42.8565C149.422 43.5754 149.259 44.1929 149.049 44.7088C148.847 45.2247 148.589 45.6469 148.277 45.9755C147.973 46.2962 147.606 46.535 147.177 46.6919C146.747 46.8409 146.251 46.9158 145.689 46.9166L145.009 46.9175L145.007 45.0074L145.475 44.9716C145.811 44.9477 146.096 44.8692 146.33 44.736C146.572 44.6029 146.775 44.4073 146.939 44.1492C147.103 43.8834 147.235 43.5433 147.336 43.1291C147.445 42.7149 147.526 42.2226 147.58 41.6522C147.642 41.0818 147.688 40.4177 147.718 39.6599L147.945 34.2337ZM168.812 39.7007L168.815 41.4585L162.112 41.4679L162.109 39.7101L168.812 39.7007ZM162.559 34.2133L162.576 46.893L160.408 46.896L160.391 34.2164L162.559 34.2133ZM170.563 34.2021L170.58 46.8818L168.401 46.8849L168.383 34.2052L170.563 34.2021ZM179.534 47.1037C178.652 47.1049 177.851 46.9576 177.132 46.6617C176.42 46.358 175.806 45.9331 175.29 45.387C174.781 44.8408 174.39 44.1929 174.115 43.4433C173.841 42.6937 173.703 41.8736 173.702 40.9829L173.701 40.4907C173.7 39.4595 173.851 38.5413 174.154 37.7362C174.458 36.9233 174.871 36.2352 175.394 35.672C175.916 35.1087 176.509 34.6821 177.173 34.3921C177.837 34.1021 178.524 33.9567 179.235 33.9557C180.141 33.9544 180.923 34.1096 181.579 34.4211C182.244 34.7327 182.787 35.1694 183.21 35.7314C183.633 36.2855 183.946 36.9413 184.15 37.6988C184.354 38.4485 184.457 39.2687 184.458 40.1593L184.46 41.132L174.991 41.1452L174.989 39.3757L182.289 39.3655L182.289 39.2014C182.257 38.6389 182.139 38.0922 181.935 37.5613C181.739 37.0303 181.426 36.5932 180.996 36.2501C180.566 35.9069 179.98 35.7359 179.237 35.7369C178.745 35.7376 178.292 35.8437 177.878 36.0552C177.465 36.2589 177.11 36.5641 176.813 36.9708C176.517 37.3774 176.287 37.8738 176.124 38.46C175.961 39.0462 175.88 39.7221 175.881 40.4877L175.881 40.9799C175.882 41.5814 175.965 42.1477 176.13 42.6788C176.302 43.202 176.549 43.6625 176.87 44.0605C177.199 44.4585 177.594 44.7705 178.055 44.9964C178.524 45.2223 179.055 45.3348 179.649 45.334C180.415 45.3329 181.063 45.1758 181.594 44.8625C182.125 44.5493 182.589 44.1307 182.987 43.6067L184.301 44.6478C184.028 45.0623 183.681 45.4573 183.259 45.8329C182.838 46.2084 182.319 46.5139 181.702 46.7491C181.093 46.9843 180.37 47.1025 179.534 47.1037ZM195.791 39.663L195.793 41.4208L189.09 41.4302L189.087 39.6724L195.791 39.663ZM189.537 34.1756L189.554 46.8553L187.386 46.8583L187.369 34.1787L189.537 34.1756ZM197.541 34.1645L197.558 46.8441L195.379 46.8472L195.361 34.1675L197.541 34.1645ZM203.589 43.4021L209.424 34.1479L211.604 34.1448L211.622 46.8245L209.442 46.8275L209.429 37.5814L203.594 46.8357L201.438 46.8387L201.42 34.159L203.577 34.156L203.589 43.4021ZM220.564 47.0464C219.681 47.0476 218.88 46.9003 218.161 46.6044C217.45 46.3007 216.836 45.8758 216.32 45.3296C215.811 44.7835 215.419 44.1356 215.145 43.386C214.87 42.6364 214.733 41.8162 214.731 40.9256L214.731 40.4334C214.729 39.4022 214.88 38.484 215.184 37.6789C215.487 36.866 215.9 36.1779 216.423 35.6146C216.946 35.0514 217.539 34.6248 218.203 34.3348C218.866 34.0448 219.554 33.8993 220.265 33.8983C221.171 33.8971 221.952 34.0522 222.609 34.3638C223.273 34.6754 223.817 35.1121 224.24 35.674C224.662 36.2281 224.976 36.8839 225.18 37.6415C225.384 38.3912 225.487 39.2114 225.488 40.102L225.489 41.0746L216.021 41.0879L216.018 39.3183L223.319 39.3081L223.319 39.1441C223.287 38.5816 223.169 38.0349 222.965 37.5039C222.769 36.973 222.456 36.5359 222.026 36.1928C221.595 35.8496 221.009 35.6785 220.267 35.6796C219.775 35.6803 219.322 35.7864 218.908 35.9979C218.494 36.2016 218.139 36.5068 217.843 36.9134C217.547 37.3201 217.317 37.8165 217.154 38.4027C216.99 38.9889 216.909 39.6647 216.91 40.4304L216.911 40.9226C216.912 41.5241 216.995 42.0904 217.16 42.6214C217.332 43.1446 217.579 43.6052 217.9 44.0032C218.228 44.4012 218.623 44.7131 219.085 44.9391C219.554 45.165 220.085 45.2775 220.679 45.2767C221.444 45.2756 222.093 45.1185 222.623 44.8052C223.154 44.492 223.619 44.0733 224.016 43.5494L225.33 44.5905C225.057 45.0049 224.71 45.4 224.289 45.7755C223.868 46.1511 223.348 46.4565 222.732 46.6918C222.123 46.927 221.4 47.0452 220.564 47.0464ZM242.813 34.1012L242.816 35.8942L236.406 35.9031L236.403 34.1102L242.813 34.1012ZM236.719 34.1097L236.737 46.7894L234.569 46.7924L234.552 34.1128L236.719 34.1097ZM244.735 34.0985L244.753 46.7782L242.573 46.7812L242.555 34.1016L244.735 34.0985ZM262.893 36.5107L262.914 51.6278L260.735 51.6309L260.71 34.0762L262.702 34.0734L262.893 36.5107ZM271.441 40.2956L271.442 40.5417C271.443 41.4636 271.335 42.3192 271.117 43.1086C270.9 43.8901 270.58 44.5702 270.159 45.149C269.746 45.7277 269.235 46.1776 268.626 46.4988C268.017 46.8199 267.318 46.9811 266.529 46.9822C265.724 46.9833 265.013 46.8515 264.396 46.5867C263.778 46.3219 263.254 45.9359 262.824 45.4287C262.393 44.9215 262.049 44.3126 261.79 43.6021C261.539 42.8915 261.366 42.0909 261.271 41.2004L261.269 39.8879C261.361 38.9503 261.536 38.1102 261.793 37.3677C262.05 36.6251 262.389 35.9918 262.81 35.4678C263.239 34.936 263.758 34.5329 264.367 34.2586C264.976 33.9765 265.679 33.8349 266.475 33.8338C267.272 33.8327 267.98 33.9879 268.597 34.2996C269.215 34.6034 269.735 35.0402 270.158 35.6099C270.58 36.1796 270.898 36.8628 271.11 37.6593C271.33 38.4481 271.44 39.3268 271.441 40.2956ZM269.262 40.5447L269.262 40.2986C269.261 39.6658 269.194 39.0722 269.06 38.5177C268.926 37.9554 268.719 37.4635 268.437 37.042C268.163 36.6127 267.811 36.2772 267.381 36.0356C266.951 35.7862 266.439 35.662 265.845 35.6628C265.298 35.6635 264.822 35.758 264.416 35.946C264.018 36.1341 263.678 36.3885 263.397 36.7092C263.117 37.0221 262.887 37.3818 262.707 37.7883C262.536 38.1869 262.408 38.6012 262.322 39.031L262.327 42.0661C262.484 42.6128 262.703 43.1281 262.985 43.6121C263.267 44.0883 263.643 44.4745 264.112 44.7707C264.581 45.0591 265.171 45.2028 265.882 45.2018C266.468 45.201 266.972 45.0792 267.393 44.8364C267.822 44.5858 268.174 44.2455 268.446 43.8154C268.727 43.3853 268.933 42.8929 269.065 42.338C269.197 41.7753 269.263 41.1775 269.262 40.5447ZM278.629 34.0512L278.647 46.7309L276.467 46.7339L276.449 34.0542L278.629 34.0512ZM282.883 34.0452L282.885 35.803L272.28 35.8179L272.277 34.06L282.883 34.0452ZM292.519 44.5435L292.51 38.0162C292.509 37.5162 292.407 37.0827 292.204 36.7158C292.008 36.3411 291.711 36.0524 291.312 35.8499C290.913 35.6473 290.421 35.5464 289.835 35.5472C289.288 35.548 288.808 35.6424 288.394 35.8305C287.988 36.0186 287.668 36.2651 287.434 36.5701C287.208 36.8751 287.095 37.2034 287.095 37.555L284.927 37.558C284.927 37.1049 285.043 36.6555 285.277 36.2099C285.511 35.7642 285.846 35.3614 286.283 35.0014C286.728 34.6336 287.259 34.3438 287.876 34.132C288.501 33.9124 289.196 33.802 289.961 33.801C290.883 33.7997 291.696 33.9548 292.399 34.2663C293.111 34.5778 293.666 35.0497 294.066 35.682C294.473 36.3064 294.677 37.0913 294.678 38.0366L294.686 43.9428C294.687 44.3647 294.723 44.8139 294.794 45.2903C294.873 45.7668 294.986 46.1768 295.135 46.5203L295.136 46.7078L292.874 46.711C292.764 46.4611 292.678 46.1292 292.615 45.7152C292.552 45.2935 292.52 44.9029 292.519 44.5435ZM292.887 39.0234L292.912 40.5469L290.721 40.5499C290.104 40.5508 289.553 40.6023 289.069 40.7046C288.584 40.799 288.178 40.9441 287.85 41.1399C287.523 41.3356 287.273 41.5821 287.101 41.8792C286.93 42.1685 286.845 42.5085 286.845 42.8991C286.846 43.2975 286.936 43.6607 287.116 43.9885C287.296 44.3164 287.566 44.5778 287.926 44.7726C288.293 44.9596 288.743 45.0527 289.274 45.0519C289.938 45.051 290.524 44.9096 291.031 44.6276C291.539 44.3456 291.94 44.0013 292.237 43.5947C292.541 43.188 292.704 42.7932 292.727 42.4104L293.654 43.4521C293.6 43.7803 293.452 44.1438 293.211 44.5425C292.969 44.9413 292.645 45.3246 292.24 45.6923C291.842 46.0523 291.366 46.3537 290.811 46.5967C290.265 46.8318 289.648 46.9499 288.96 46.9508C288.101 46.952 287.347 46.7851 286.698 46.4501C286.057 46.115 285.556 45.6665 285.196 45.1045C284.843 44.5347 284.667 43.8982 284.666 43.1951C284.665 42.5154 284.797 41.9176 285.062 41.4016C285.327 40.8778 285.709 40.4436 286.208 40.0992C286.708 39.7469 287.309 39.4805 288.012 39.2998C288.715 39.1191 289.5 39.0282 290.367 39.027L292.887 39.0234ZM306.755 34.0119L306.758 35.8048L300.629 35.8134L300.626 34.0204L306.755 34.0119ZM308.666 34.0092L308.683 46.6889L306.515 46.6919L306.498 34.0122L308.666 34.0092ZM300.099 34.0212L302.279 34.0181L301.959 40.1358C301.906 41.0812 301.817 41.9172 301.693 42.644C301.577 43.3629 301.414 43.9803 301.204 44.4962C301.001 45.0121 300.744 45.4344 300.432 45.7629C300.128 46.0837 299.761 46.3224 299.331 46.4793C298.902 46.6283 298.406 46.7032 297.843 46.704L297.164 46.705L297.161 44.7948L297.63 44.759C297.966 44.7351 298.251 44.6566 298.485 44.5234C298.727 44.3903 298.93 44.1947 299.093 43.9367C299.257 43.6708 299.389 43.3308 299.49 42.9166C299.599 42.5024 299.681 42.0101 299.735 41.4397C299.796 40.8693 299.842 40.2051 299.872 39.4473L300.099 34.0212ZM319.849 44.5053L319.84 37.978C319.839 37.478 319.737 37.0445 319.533 36.6776C319.337 36.3029 319.04 36.0143 318.641 35.8117C318.243 35.6091 317.75 35.5082 317.165 35.5091C316.618 35.5098 316.137 35.6042 315.723 35.7923C315.318 35.9804 314.998 36.2269 314.764 36.5319C314.537 36.8369 314.425 37.1652 314.425 37.5168L312.257 37.5198C312.257 37.0667 312.373 36.6173 312.607 36.1717C312.841 35.726 313.176 35.3232 313.613 34.9632C314.058 34.5954 314.589 34.3056 315.206 34.0938C315.83 33.8742 316.525 33.7639 317.291 33.7628C318.213 33.7615 319.026 33.9166 319.729 34.2281C320.441 34.5396 320.996 35.0115 321.395 35.6438C321.802 36.2682 322.007 37.0531 322.008 37.9984L322.016 43.9046C322.017 44.3265 322.052 44.7757 322.123 45.2521C322.202 45.7286 322.316 46.1386 322.465 46.4821L322.465 46.6696L320.204 46.6728C320.094 46.4229 320.007 46.091 319.944 45.6771C319.881 45.2553 319.849 44.8647 319.849 44.5053ZM320.216 38.9853L320.242 40.5087L318.05 40.5117C317.433 40.5126 316.883 40.5641 316.398 40.6664C315.914 40.7608 315.508 40.9059 315.18 41.1017C314.852 41.2975 314.603 41.5439 314.431 41.841C314.26 42.1303 314.174 42.4703 314.175 42.8609C314.175 43.2593 314.266 43.6225 314.446 43.9504C314.626 44.2782 314.896 44.5396 315.256 44.7344C315.623 44.9214 316.072 45.0145 316.604 45.0138C317.268 45.0128 317.853 44.8714 318.361 44.5894C318.868 44.3075 319.27 43.9632 319.566 43.5565C319.871 43.1498 320.034 42.7551 320.057 42.3722L320.984 43.4139C320.93 43.7421 320.782 44.1056 320.54 44.5044C320.299 44.9031 319.975 45.2864 319.569 45.6541C319.171 46.0141 318.695 46.3155 318.141 46.5585C317.594 46.7936 316.977 46.9117 316.29 46.9126C315.43 46.9138 314.676 46.7469 314.027 46.4119C313.386 46.0768 312.886 45.6283 312.526 45.0663C312.173 44.4965 311.996 43.86 311.996 43.1569C311.995 42.4772 312.127 41.8794 312.391 41.3634C312.656 40.8396 313.039 40.4055 313.538 40.061C314.038 39.7087 314.639 39.4423 315.342 39.2616C316.045 39.0809 316.83 38.99 317.697 38.9888L320.216 38.9853ZM92.1173 62.8586C91.6408 62.8593 91.1839 62.9654 90.7467 63.177C90.3173 63.3885 89.9622 63.682 89.6815 64.0574C89.4086 64.4249 89.2725 64.8509 89.2731 65.3353L87.1989 65.3382C87.1979 64.5804 87.4313 63.8808 87.8991 63.2395C88.367 62.5904 88.9756 62.0701 89.7251 61.6784C90.4745 61.2789 91.2711 61.0786 92.1148 61.0774C93.0055 61.0762 93.7948 61.243 94.4827 61.578C95.1707 61.913 95.7495 62.3731 96.219 62.9584C96.6964 63.5437 97.0567 64.2189 97.3 64.9842C97.5432 65.7417 97.6655 66.5462 97.6667 67.3978L97.6673 67.89C97.6685 68.7415 97.5447 69.5503 97.2957 70.3163C97.0546 71.0744 96.6962 71.7507 96.2204 72.3451C95.7525 72.9317 95.175 73.3934 94.488 73.7303C93.8088 74.0672 93.0278 74.2363 92.145 74.2375C91.1996 74.2388 90.3517 74.0369 89.6011 73.6317C88.8584 73.2265 88.2717 72.6804 87.841 71.9935C87.4182 71.2988 87.2062 70.5179 87.2049 69.6507L89.2792 69.6478C89.2799 70.1712 89.4056 70.6476 89.6562 71.0769C89.9146 71.4984 90.2588 71.8339 90.6888 72.0833C91.1189 72.3327 91.6034 72.457 92.1425 72.4563C92.7284 72.4555 93.2321 72.3219 93.6536 72.0557C94.0829 71.7895 94.434 71.4374 94.7068 70.9996C94.9797 70.5617 95.1782 70.0731 95.3024 69.5339C95.4345 68.9868 95.5001 68.4399 95.4994 67.893L95.4987 67.4008C95.4979 66.8461 95.4307 66.2993 95.2972 65.7605C95.1714 65.2216 94.9715 64.7336 94.6975 64.2964C94.4312 63.8593 94.0831 63.5121 93.653 63.2549C93.2308 62.9899 92.7189 62.8578 92.1173 62.8586ZM96.5523 66.6376L96.5548 68.4071L90.7071 68.4153L90.7047 66.6458L96.5523 66.6376ZM103.143 61.2964L103.161 73.976L100.993 73.9791L100.975 61.2994L103.143 61.2964ZM111.464 61.2847L105.462 68.5588L102.427 68.563L102.096 66.665L104.58 66.6615L108.827 61.2884L111.464 61.2847ZM109.149 73.9677L104.477 68.232L105.87 66.6597L111.903 73.9638L109.149 73.9677ZM113.149 67.7629L113.149 67.4933C113.148 66.5793 113.279 65.7314 113.544 64.9498C113.808 64.1604 114.19 63.4762 114.689 62.8974C115.188 62.3108 115.793 61.8568 116.504 61.5355C117.214 61.2064 118.011 61.0412 118.894 61.04C119.784 61.0387 120.585 61.2017 121.297 61.5288C122.016 61.8481 122.626 62.3004 123.127 62.8856C123.635 63.4631 124.023 64.1461 124.29 64.9348C124.557 65.7157 124.691 66.5631 124.692 67.4772L124.692 67.7467C124.693 68.6608 124.562 69.5086 124.297 70.2903C124.033 71.0719 123.647 71.756 123.14 72.3427C122.641 72.9215 122.036 73.3755 121.325 73.7046C120.623 74.0259 119.826 74.1871 118.936 74.1884C118.045 74.1896 117.244 74.0306 116.533 73.7113C115.821 73.3841 115.211 72.9319 114.702 72.3544C114.202 71.7692 113.818 71.0861 113.551 70.3053C113.284 69.5244 113.15 68.6769 113.149 67.7629ZM115.317 67.4903L115.317 67.7598C115.318 68.3926 115.393 68.9902 115.542 69.5525C115.692 70.107 115.915 70.5988 116.212 71.0281C116.518 71.4574 116.897 71.7967 117.351 72.0461C117.804 72.2876 118.331 72.408 118.933 72.4071C119.527 72.4063 120.046 72.2845 120.491 72.0417C120.944 71.791 121.318 71.4507 121.615 71.0206C121.911 70.5905 122.133 70.098 122.281 69.5431C122.436 68.9804 122.513 68.3826 122.512 67.7498L122.512 67.4802C122.511 66.8552 122.432 66.2655 122.275 65.711C122.126 65.1488 121.899 64.653 121.593 64.2237C121.296 63.7866 120.921 63.4434 120.467 63.194C120.021 62.9447 119.498 62.8204 118.896 62.8212C118.302 62.8221 117.779 62.9478 117.326 63.1984C116.881 63.449 116.507 63.7933 116.203 64.2312C115.907 64.6613 115.685 65.1578 115.537 65.7205C115.389 66.2754 115.316 66.8653 115.317 67.4903ZM135.887 61.2506L135.89 63.0436L129.761 63.0521L129.758 61.2592L135.887 61.2506ZM137.797 61.248L137.815 73.9276L135.647 73.9307L135.629 61.251L137.797 61.248ZM129.231 61.2599L131.41 61.2569L131.091 67.3745C131.038 68.3199 130.949 69.156 130.825 69.8827C130.709 70.6016 130.545 71.219 130.335 71.7349C130.133 72.2509 129.876 72.6731 129.564 73.0017C129.259 73.3224 128.892 73.5612 128.463 73.718C128.034 73.8671 127.538 73.942 126.975 73.9428L126.295 73.9437L126.293 72.0336L126.761 71.9978C127.097 71.9738 127.382 71.8953 127.617 71.7622C127.859 71.629 128.061 71.4334 128.225 71.1754C128.389 70.9095 128.521 70.5695 128.622 70.1553C128.731 69.7411 128.812 69.2488 128.866 68.6784C128.928 68.108 128.974 67.4439 129.004 66.686L129.231 61.2599ZM140.924 67.7241L140.924 67.4545C140.923 66.5405 141.054 65.6926 141.319 64.911C141.583 64.1216 141.965 63.4374 142.464 62.8586C142.963 62.272 143.568 61.818 144.279 61.4967C144.989 61.1676 145.786 61.0024 146.669 61.0012C147.559 60.9999 148.36 61.1629 149.072 61.49C149.791 61.8093 150.401 62.2616 150.902 62.8468C151.41 63.4242 151.798 64.1073 152.065 64.896C152.331 65.6769 152.465 66.5243 152.467 67.4384L152.467 67.7079C152.468 68.622 152.337 69.4698 152.072 70.2515C151.808 71.0331 151.422 71.7172 150.915 72.3039C150.416 72.8827 149.811 73.3366 149.1 73.6658C148.398 73.9871 147.601 74.1483 146.711 74.1496C145.82 74.1508 145.019 73.9918 144.307 73.6725C143.596 73.3453 142.986 72.8931 142.477 72.3156C141.977 71.7304 141.593 71.0473 141.326 70.2665C141.059 69.4856 140.925 68.6381 140.924 67.7241ZM143.092 67.4515L143.092 67.721C143.093 68.3538 143.168 68.9514 143.317 69.5137C143.467 70.0682 143.69 70.56 143.987 70.9893C144.293 71.4186 144.672 71.7579 145.125 72.0073C145.579 72.2488 146.106 72.3692 146.708 72.3683C147.302 72.3675 147.821 72.2457 148.266 72.0029C148.719 71.7522 149.093 71.4119 149.39 70.9818C149.686 70.5517 149.908 70.0592 150.056 69.5043C150.211 68.9416 150.288 68.3438 150.287 67.711L150.287 67.4414C150.286 66.8164 150.207 66.2267 150.05 65.6722C149.901 65.11 149.674 64.6142 149.368 64.1849C149.071 63.7478 148.695 63.4046 148.242 63.1552C147.796 62.9059 147.273 62.7816 146.671 62.7824C146.077 62.7833 145.554 62.909 145.101 63.1596C144.656 63.4102 144.282 63.7545 143.978 64.1924C143.682 64.6225 143.46 65.119 143.312 65.6817C143.164 66.2366 143.091 66.8265 143.092 67.4515ZM163.568 61.2119L163.571 63.0049L157.711 63.0131L157.727 73.8998L155.559 73.9028L155.541 61.2232L163.568 61.2119ZM168.012 70.4518L173.846 61.1976L176.026 61.1945L176.044 73.8742L173.864 73.8773L173.851 64.6312L168.016 73.8854L165.86 73.8884L165.842 61.2088L167.999 61.2058L168.012 70.4518ZM189.269 61.176L189.287 73.8557L187.119 73.8587L187.101 61.1791L189.269 61.176ZM188.539 67.0013L188.541 68.7825C188.104 68.9472 187.659 69.0963 187.206 69.2297C186.761 69.3553 186.288 69.4576 185.788 69.5364C185.296 69.6074 184.761 69.6433 184.183 69.6441C183.183 69.6455 182.316 69.4748 181.581 69.1321C180.846 68.7816 180.279 68.255 179.879 67.5524C179.48 66.8421 179.28 65.9478 179.278 64.8697L179.273 61.1666L181.441 61.1635L181.446 64.8667C181.447 65.5698 181.553 66.14 181.765 66.5772C181.976 67.0144 182.285 67.3381 182.692 67.5485C183.098 67.7511 183.595 67.8519 184.181 67.8511C184.743 67.8503 185.27 67.8144 185.763 67.7434C186.262 67.6646 186.739 67.5624 187.192 67.4368C187.653 67.3111 188.102 67.166 188.539 67.0013ZM198.241 74.0776C197.358 74.0788 196.557 73.9315 195.838 73.6356C195.127 73.3319 194.513 72.907 193.996 72.3609C193.488 71.8147 193.096 71.1668 192.822 70.4172C192.547 69.6676 192.409 68.8474 192.408 67.9568L192.407 67.4646C192.406 66.4334 192.557 65.5152 192.861 64.7101C193.164 63.8972 193.577 63.2091 194.1 62.6459C194.623 62.0826 195.216 61.656 195.879 61.366C196.543 61.076 197.23 60.9305 197.941 60.9296C198.848 60.9283 199.629 61.0834 200.286 61.395C200.95 61.7066 201.494 62.1433 201.916 62.7052C202.339 63.2593 202.653 63.9152 202.857 64.6727C203.061 65.4224 203.164 66.2426 203.165 67.1332L203.166 68.1059L193.697 68.1191L193.695 66.3496L200.996 66.3394L200.996 66.1753C200.963 65.6128 200.846 65.0661 200.642 64.5352C200.446 64.0042 200.132 63.5671 199.702 63.224C199.272 62.8808 198.686 62.7098 197.944 62.7108C197.452 62.7115 196.999 62.8176 196.585 63.0291C196.171 63.2328 195.816 63.538 195.52 63.9447C195.223 64.3513 194.994 64.8477 194.83 65.4339C194.667 66.0201 194.586 66.696 194.587 67.4616L194.588 67.9538C194.589 68.5553 194.671 69.1216 194.836 69.6526C195.009 70.1758 195.256 70.6364 195.577 71.0344C195.905 71.4324 196.3 71.7444 196.761 71.9703C197.23 72.1962 197.762 72.3087 198.356 72.3079C199.121 72.3068 199.769 72.1497 200.3 71.8364C200.831 71.5232 201.295 71.1046 201.693 70.5806L203.007 71.6217C202.734 72.0361 202.387 72.4312 201.966 72.8068C201.544 73.1823 201.025 73.4878 200.408 73.723C199.799 73.9582 199.077 74.0764 198.241 74.0776ZM210.977 72.2785C211.493 72.2778 211.97 72.1717 212.407 71.9601C212.844 71.7486 213.203 71.459 213.484 71.0914C213.764 70.716 213.924 70.29 213.962 69.8134L216.025 69.8105C215.987 70.5606 215.734 71.2602 215.266 71.9093C214.806 72.5505 214.201 73.0709 213.452 73.4704C212.702 73.8621 211.878 74.0585 210.98 74.0598C210.027 74.0611 209.195 73.8943 208.483 73.5594C207.78 73.2244 207.193 72.7643 206.723 72.179C206.262 71.5937 205.913 70.9223 205.678 70.1648C205.45 69.3995 205.336 68.5911 205.334 67.7395L205.334 67.2474C205.333 66.3958 205.445 65.5909 205.67 64.8328C205.904 64.0669 206.25 63.3906 206.71 62.804C207.178 62.2174 207.764 61.7557 208.466 61.4188C209.177 61.0818 210.008 60.9127 210.962 60.9114C211.954 60.91 212.821 61.1119 213.564 61.5171C214.307 61.9145 214.89 62.4606 215.312 63.1553C215.743 63.8422 215.979 64.6231 216.019 65.4981L213.956 65.5009C213.917 64.9775 213.767 64.5051 213.509 64.0836C213.258 63.6621 212.914 63.3266 212.476 63.0772C212.046 62.82 211.542 62.6918 210.964 62.6926C210.3 62.6935 209.742 62.8271 209.289 63.0934C208.844 63.3518 208.489 63.7039 208.224 64.1496C207.967 64.5874 207.78 65.076 207.663 65.6152C207.555 66.1466 207.501 66.6896 207.502 67.2443L207.502 67.7365C207.503 68.2912 207.559 68.838 207.669 69.3769C207.779 69.9158 207.963 70.4038 208.222 70.841C208.488 71.2781 208.844 71.6292 209.289 71.8942C209.743 72.1514 210.306 72.2795 210.977 72.2785ZM221.006 61.1317L221.023 73.8114L218.855 73.8144L218.838 61.1347L221.006 61.1317ZM229.326 61.1201L223.324 68.3941L220.289 68.3983L219.958 66.5004L222.443 66.4969L226.689 61.1238L229.326 61.1201ZM227.012 73.803L222.34 68.0673L223.732 66.4951L229.766 73.7992L227.012 73.803ZM231.012 67.5982L231.011 67.3287C231.01 66.4146 231.142 65.5668 231.406 64.7851C231.671 63.9957 232.052 63.3116 232.552 62.7328C233.051 62.1461 233.656 61.6922 234.366 61.3709C235.077 61.0417 235.873 60.8766 236.756 60.8753C237.647 60.8741 238.448 61.037 239.159 61.3642C239.878 61.6835 240.488 62.1357 240.989 62.721C241.498 63.2984 241.885 63.9814 242.152 64.7701C242.419 65.551 242.553 66.3985 242.554 67.3125L242.555 67.5821C242.556 68.4961 242.424 69.344 242.16 70.1256C241.895 70.9072 241.509 71.5914 241.002 72.178C240.503 72.7568 239.898 73.2108 239.188 73.5399C238.485 73.8612 237.689 74.0225 236.798 74.0237C235.907 74.025 235.106 73.8659 234.395 73.5466C233.684 73.2195 233.074 72.7672 232.565 72.1898C232.064 71.6045 231.68 70.9215 231.414 70.1406C231.147 69.3597 231.013 68.5123 231.012 67.5982ZM233.179 67.3256L233.18 67.5952C233.18 68.228 233.255 68.8255 233.405 69.3878C233.554 69.9423 233.777 70.4342 234.075 70.8635C234.38 71.2927 234.759 71.632 235.213 71.8814C235.666 72.123 236.194 72.2433 236.795 72.2425C237.389 72.2416 237.909 72.1198 238.354 71.877C238.806 71.6264 239.181 71.286 239.477 70.8559C239.773 70.4258 239.995 69.9333 240.143 69.3784C240.298 68.8157 240.376 68.2179 240.375 67.5851L240.374 67.3156C240.374 66.6906 240.295 66.1009 240.138 65.5464C239.988 64.9841 239.761 64.4883 239.456 64.0591C239.158 63.622 238.783 63.2787 238.329 63.0294C237.884 62.78 237.36 62.6557 236.759 62.6566C236.165 62.6574 235.642 62.7831 235.189 63.0338C234.744 63.2844 234.369 63.6287 234.065 64.0666C233.769 64.4967 233.547 64.9931 233.399 65.5558C233.252 66.1107 233.178 66.7006 233.179 67.3256ZM253.656 61.0861L253.658 62.8791L247.799 62.8872L247.814 73.774L245.646 73.777L245.628 61.0973L253.656 61.0861ZM254.943 67.5648L254.942 67.2952C254.941 66.3812 255.073 65.5333 255.337 64.7517C255.602 63.9623 255.984 63.2782 256.483 62.6993C256.982 62.1127 257.587 61.6587 258.297 61.3374C259.008 61.0083 259.805 60.8431 260.687 60.8419C261.578 60.8406 262.379 61.0036 263.09 61.3307C263.81 61.65 264.42 62.1023 264.92 62.6875C265.429 63.265 265.817 63.948 266.083 64.7367C266.35 65.5176 266.484 66.365 266.485 67.2791L266.486 67.5486C266.487 68.4627 266.355 69.3105 266.091 70.0922C265.826 70.8738 265.441 71.5579 264.934 72.1446C264.434 72.7234 263.83 73.1774 263.119 73.5065C262.416 73.8278 261.62 73.989 260.729 73.9903C259.839 73.9915 259.038 73.8325 258.326 73.5132C257.615 73.186 257.005 72.7338 256.496 72.1564C255.995 71.5711 255.612 70.8881 255.345 70.1072C255.078 69.3263 254.944 68.4788 254.943 67.5648ZM257.11 67.2922L257.111 67.5617C257.112 68.1946 257.187 68.7921 257.336 69.3544C257.485 69.9089 257.709 70.4008 258.006 70.83C258.311 71.2593 258.691 71.5986 259.144 71.848C259.598 72.0895 260.125 72.2099 260.727 72.209C261.32 72.2082 261.84 72.0864 262.285 71.8436C262.738 71.5929 263.112 71.2526 263.408 70.8225C263.705 70.3924 263.927 69.8999 264.074 69.345C264.23 68.7823 264.307 68.1845 264.306 67.5517L264.306 67.2822C264.305 66.6572 264.226 66.0674 264.069 65.513C263.92 64.9507 263.692 64.4549 263.387 64.0256C263.09 63.5885 262.714 63.2453 262.261 62.9959C261.815 62.7466 261.291 62.6223 260.69 62.6231C260.096 62.624 259.573 62.7497 259.12 63.0003C258.675 63.251 258.301 63.5952 257.996 64.0332C257.7 64.4633 257.478 64.9597 257.331 65.5224C257.183 66.0773 257.11 66.6672 257.11 67.2922ZM282.851 70.8422L287.15 61.0393L289.236 61.0364L283.605 73.7239L282.105 73.726L276.463 61.0542L278.549 61.0513L282.851 70.8422ZM277.916 61.0522L277.933 73.7319L275.766 73.7349L275.748 61.0552L277.916 61.0522ZM287.707 73.7182L287.689 61.0385L289.869 61.0355L289.887 73.7152L287.707 73.7182ZM292.996 67.5116L292.996 67.2421C292.994 66.328 293.126 65.4802 293.39 64.6986C293.655 63.9091 294.037 63.225 294.536 62.6462C295.035 62.0595 295.64 61.6056 296.35 61.2843C297.061 60.9551 297.858 60.79 298.74 60.7887C299.631 60.7875 300.432 60.9504 301.143 61.2776C301.863 61.5969 302.473 62.0491 302.973 62.6344C303.482 63.2118 303.87 63.8948 304.137 64.6835C304.403 65.4644 304.537 66.3119 304.538 67.2259L304.539 67.4955C304.54 68.4095 304.409 69.2574 304.144 70.039C303.879 70.8206 303.494 71.5048 302.987 72.0914C302.488 72.6702 301.883 73.1242 301.172 73.4533C300.47 73.7746 299.673 73.9359 298.782 73.9371C297.892 73.9384 297.091 73.7793 296.379 73.46C295.668 73.1329 295.058 72.6806 294.549 72.1032C294.048 71.518 293.665 70.8349 293.398 70.054C293.131 69.2731 292.997 68.4257 292.996 67.5116ZM295.163 67.239L295.164 67.5086C295.165 68.1414 295.24 68.7389 295.389 69.3012C295.538 69.8557 295.762 70.3476 296.059 70.7769C296.364 71.2061 296.744 71.5454 297.197 71.7948C297.651 72.0364 298.178 72.1567 298.78 72.1559C299.373 72.155 299.893 72.0332 300.338 71.7904C300.791 71.5398 301.165 71.1994 301.461 70.7693C301.758 70.3392 301.98 69.8467 302.127 69.2918C302.283 68.7291 302.36 68.1313 302.359 67.4985L302.359 67.229C302.358 66.604 302.279 66.0143 302.122 65.4598C301.973 64.8975 301.745 64.4017 301.44 63.9725C301.143 63.5354 300.767 63.1922 300.314 62.9428C299.868 62.6934 299.344 62.5691 298.743 62.57C298.149 62.5708 297.626 62.6965 297.173 62.9472C296.728 63.1978 296.354 63.5421 296.05 63.98C295.753 64.4101 295.531 64.9065 295.384 65.4692C295.236 66.0241 295.163 66.614 295.163 67.239ZM316.058 66.495L316.06 68.2528L309.357 68.2622L309.355 66.5044L316.058 66.495ZM309.804 61.0076L309.822 73.6873L307.654 73.6904L307.636 61.0107L309.804 61.0076ZM317.808 60.9965L317.826 73.6761L315.646 73.6792L315.628 60.9995L317.808 60.9965ZM323.857 70.2341L329.692 60.9799L331.871 60.9768L331.889 73.6565L329.709 73.6595L329.696 64.4135L323.862 73.6677L321.705 73.6707L321.688 60.991L323.844 60.988L323.857 70.2341ZM340.72 60.9645L340.737 73.6441L338.558 73.6472L338.54 60.9675L340.72 60.9645ZM344.974 60.9585L344.976 62.7163L334.371 62.7311L334.368 60.9733L344.974 60.9585ZM346.249 67.4372L346.249 67.1677C346.247 66.2536 346.379 65.4058 346.643 64.6242C346.908 63.8347 347.29 63.1506 347.789 62.5718C348.288 61.9851 348.893 61.5312 349.604 61.2099C350.314 60.8807 351.111 60.7156 351.994 60.7143C352.884 60.7131 353.685 60.876 354.397 61.2032C355.116 61.5225 355.726 61.9747 356.227 62.56C356.735 63.1374 357.123 63.8205 357.39 64.6091C357.656 65.39 357.79 66.2375 357.792 67.1516L357.792 67.4211C357.793 68.3351 357.662 69.183 357.397 69.9646C357.133 70.7462 356.747 71.4304 356.24 72.017C355.741 72.5958 355.136 73.0498 354.425 73.3789C353.723 73.7002 352.926 73.8615 352.035 73.8627C351.145 73.864 350.344 73.7049 349.632 73.3856C348.921 73.0585 348.311 72.6062 347.802 72.0288C347.301 71.4436 346.918 70.7605 346.651 69.9796C346.384 69.1987 346.25 68.3513 346.249 67.4372ZM348.417 67.1646L348.417 67.4342C348.418 68.067 348.493 68.6645 348.642 69.2268C348.791 69.7813 349.015 70.2732 349.312 70.7025C349.617 71.1317 349.997 71.471 350.45 71.7204C350.904 71.962 351.431 72.0823 352.033 72.0815C352.627 72.0806 353.146 71.9588 353.591 71.716C354.044 71.4654 354.418 71.125 354.714 70.6949C355.011 70.2648 355.233 69.7723 355.38 69.2174C355.536 68.6547 355.613 68.0569 355.612 67.4241L355.612 67.1546C355.611 66.5296 355.532 65.9399 355.375 65.3854C355.226 64.8231 354.999 64.3273 354.693 63.8981C354.396 63.461 354.02 63.1178 353.567 62.8684C353.121 62.619 352.598 62.4947 351.996 62.4956C351.402 62.4964 350.879 62.6221 350.426 62.8728C349.981 63.1234 349.607 63.4677 349.303 63.9056C349.006 64.3357 348.784 64.8321 348.637 65.3948C348.489 65.9497 348.416 66.5396 348.417 67.1646ZM362.873 63.371L362.894 78.4882L360.714 78.4912L360.69 60.9366L362.682 60.9338L362.873 63.371ZM371.421 67.1559L371.422 67.402C371.423 68.3239 371.315 69.1795 371.097 69.9689C370.879 70.7505 370.56 71.4306 370.139 72.0093C369.726 72.588 369.215 73.0379 368.606 73.3591C367.997 73.6803 367.298 73.8414 366.509 73.8425C365.704 73.8436 364.993 73.7118 364.375 73.447C363.758 73.1823 363.234 72.7963 362.803 72.2891C362.373 71.7819 362.028 71.173 361.77 70.4624C361.519 69.7518 361.346 68.9513 361.251 68.0608L361.249 66.7483C361.341 65.8107 361.516 64.9706 361.773 64.228C362.029 63.4855 362.368 62.8522 362.79 62.3282C363.218 61.7963 363.737 61.3932 364.346 61.1189C364.955 60.8368 365.658 60.6952 366.455 60.6941C367.252 60.693 367.959 60.8483 368.577 61.1599C369.195 61.4637 369.715 61.9005 370.137 62.4702C370.56 63.04 370.877 63.7231 371.089 64.5197C371.309 65.3084 371.42 66.1872 371.421 67.1559ZM369.242 67.4051L369.242 67.159C369.241 66.5262 369.173 65.9325 369.04 65.378C368.906 64.8157 368.699 64.3238 368.417 63.9023C368.143 63.473 367.791 63.1376 367.361 62.896C366.931 62.6466 366.419 62.5223 365.825 62.5231C365.278 62.5239 364.802 62.6183 364.396 62.8064C363.997 62.9944 363.658 63.2488 363.377 63.5695C363.096 63.8824 362.866 64.2421 362.687 64.6486C362.516 65.0473 362.388 65.4615 362.302 65.8913L362.307 68.9265C362.464 69.4732 362.683 69.9885 362.965 70.4725C363.247 70.9486 363.622 71.3348 364.092 71.631C364.561 71.9194 365.151 72.0631 365.862 72.0622C366.448 72.0613 366.951 71.9395 367.373 71.6968C367.802 71.4462 368.153 71.1058 368.426 70.6758C368.707 70.2457 368.913 69.7532 369.045 69.1983C369.177 68.6356 369.243 68.0379 369.242 67.4051ZM376.735 70.1602L382.57 60.906L384.749 60.9029L384.767 73.5826L382.587 73.5857L382.574 64.3396L376.74 73.5938L374.583 73.5968L374.566 60.9172L376.722 60.9142L376.735 70.1602ZM397.039 66.3819L397.041 68.1397L390.338 68.1491L390.336 66.3912L397.039 66.3819ZM390.785 60.8945L390.803 73.5742L388.635 73.5772L388.617 60.8975L390.785 60.8945ZM398.789 60.8833L398.807 73.563L396.627 73.5661L396.609 60.8864L398.789 60.8833ZM410.673 60.8667L410.675 62.6597L404.816 62.6679L404.831 73.5546L402.663 73.5576L402.645 60.8779L410.673 60.8667ZM420.251 71.3651L420.242 64.8377C420.241 64.3377 420.139 63.9043 419.935 63.5374C419.739 63.1627 419.442 62.874 419.043 62.6714C418.644 62.4689 418.152 62.368 417.566 62.3688C417.019 62.3696 416.539 62.464 416.125 62.6521C415.719 62.8401 415.399 63.0867 415.165 63.3917C414.939 63.6967 414.826 64.025 414.827 64.3766L412.659 64.3796C412.658 63.9265 412.775 63.4771 413.009 63.0314C413.242 62.5858 413.578 62.183 414.015 61.823C414.459 61.4552 414.99 61.1654 415.607 60.9536C416.232 60.734 416.927 60.6236 417.693 60.6225C418.615 60.6213 419.427 60.7764 420.131 61.0879C420.842 61.3994 421.398 61.8713 421.797 62.5035C422.204 63.128 422.408 63.9128 422.41 64.8581L422.418 70.7644C422.418 71.1863 422.454 71.6354 422.525 72.1119C422.604 72.5884 422.718 72.9984 422.867 73.3419L422.867 73.5294L420.605 73.5326C420.496 73.2827 420.409 72.9508 420.346 72.5368C420.283 72.115 420.251 71.7245 420.251 71.3651ZM420.618 65.845L420.643 67.3684L418.452 67.3715C417.835 67.3724 417.284 67.4239 416.8 67.5261C416.316 67.6206 415.91 67.7657 415.582 67.9614C415.254 68.1572 415.004 68.4037 414.833 68.7008C414.661 68.9901 414.576 69.33 414.576 69.7207C414.577 70.1191 414.667 70.4823 414.848 70.8101C415.028 71.138 415.298 71.3993 415.657 71.5942C416.025 71.7811 416.474 71.8743 417.005 71.8735C417.669 71.8726 418.255 71.7311 418.762 71.4492C419.27 71.1672 419.672 70.8229 419.968 70.4163C420.272 70.0096 420.436 69.6148 420.459 69.232L421.386 70.2736C421.332 70.6018 421.184 70.9653 420.942 71.3641C420.7 71.7629 420.377 72.1462 419.971 72.5139C419.573 72.8738 419.097 73.1753 418.543 73.4182C417.996 73.6534 417.379 73.7714 416.692 73.7724C415.832 73.7736 415.078 73.6067 414.429 73.2716C413.788 72.9366 413.287 72.4881 412.927 71.9261C412.575 71.3563 412.398 70.7198 412.397 70.0167C412.396 69.337 412.528 68.7391 412.793 68.2231C413.058 67.6993 413.44 67.2652 413.94 66.9208C414.439 66.5685 415.04 66.302 415.743 66.1214C416.446 65.9407 417.231 65.8498 418.098 65.8485L420.618 65.845ZM93.6745 95.4112L89.5144 95.417L89.4885 93.6827L92.887 93.6779C93.5588 93.677 94.1173 93.6098 94.5625 93.4764C95.0154 93.3429 95.355 93.1432 95.5812 92.8773C95.8073 92.6113 95.9202 92.283 95.9196 91.8924C95.9192 91.5877 95.8524 91.3222 95.7193 91.0958C95.594 90.8616 95.4023 90.6705 95.1443 90.5224C94.8862 90.3665 94.5658 90.2537 94.1829 90.1839C93.8077 90.1063 93.3663 90.0679 92.8585 90.0686L90.0811 90.0725L90.0964 100.994L87.9284 100.997L87.9107 88.3177L92.856 88.3108C93.6607 88.3096 94.3835 88.3789 95.0243 88.5187C95.6729 88.6584 96.224 88.8725 96.6775 89.1609C97.1389 89.4415 97.4909 89.8004 97.7337 90.2375C97.9765 90.6747 98.0983 91.1902 98.0992 91.7839C98.0997 92.1667 98.0221 92.5301 97.8663 92.8741C97.7105 93.218 97.4805 93.5231 97.1762 93.7891C96.8719 94.0552 96.4972 94.2744 96.0521 94.4469C95.607 94.6116 95.0954 94.7178 94.5174 94.7655L93.6745 95.4112ZM93.6823 100.989L88.737 100.996L89.8127 99.2369L93.6799 99.2315C94.2814 99.2307 94.7813 99.1557 95.1796 99.0067C95.5778 98.8499 95.8743 98.6308 96.0693 98.3493C96.272 98.0599 96.3731 97.716 96.3725 97.3176C96.372 96.9191 96.2699 96.5794 96.0664 96.2985C95.8707 96.0097 95.5735 95.7913 95.1749 95.6435C94.7762 95.4878 94.2761 95.4103 93.6745 95.4112L90.3816 95.4158L90.4026 93.6814L94.5159 93.6756L95.3019 94.3308C95.9973 94.3845 96.5874 94.5556 97.0722 94.8439C97.557 95.1323 97.9247 95.499 98.1753 95.944C98.4259 96.3811 98.5516 96.8575 98.5523 97.3731C98.5531 97.9669 98.4406 98.4905 98.2146 98.9439C97.9965 99.3973 97.6767 99.7767 97.2553 100.082C96.8338 100.379 96.3224 100.607 95.7211 100.764C95.1197 100.913 94.4401 100.988 93.6823 100.989ZM110.488 83.9033L110.512 100.966L108.25 100.969L108.226 83.9065L110.488 83.9033ZM121 83.8886L113.607 93.2857L109.599 93.2913L109.245 91.4168L112.256 91.4126L118.199 83.8925L121 83.8886ZM118.75 100.954L112.329 92.9945L113.592 91.0123L121.516 100.95L118.75 100.954ZM130.912 98.7693L130.903 92.242C130.902 91.742 130.8 91.3085 130.596 90.9416C130.401 90.5669 130.103 90.2783 129.705 90.0757C129.306 89.8731 128.814 89.7722 128.228 89.7731C127.681 89.7738 127.2 89.8683 126.787 90.0563C126.381 90.2444 126.061 90.4909 125.827 90.796C125.601 91.101 125.488 91.4292 125.488 91.7808L123.32 91.7838C123.32 91.3307 123.436 90.8813 123.67 90.4357C123.904 89.99 124.239 89.5872 124.676 89.2272C125.121 88.8594 125.652 88.5696 126.269 88.3578C126.893 88.1382 127.588 88.0279 128.354 88.0268C129.276 88.0255 130.089 88.1806 130.792 88.4921C131.504 88.8036 132.059 89.2755 132.458 89.9078C132.865 90.5322 133.07 91.3171 133.071 92.2624L133.079 98.1686C133.08 98.5905 133.116 99.0397 133.187 99.5161C133.265 99.9926 133.379 100.403 133.528 100.746L133.528 100.934L131.267 100.937C131.157 100.687 131.071 100.355 131.007 99.9411C130.944 99.5193 130.913 99.1287 130.912 98.7693ZM131.279 93.2493L131.305 94.7727L129.114 94.7757C128.496 94.7766 127.946 94.8282 127.461 94.9304C126.977 95.0248 126.571 95.1699 126.243 95.3657C125.915 95.5615 125.666 95.8079 125.494 96.105C125.323 96.3943 125.237 96.7343 125.238 97.1249C125.238 97.5233 125.329 97.8865 125.509 98.2144C125.689 98.5422 125.959 98.8036 126.319 98.9984C126.686 99.1854 127.135 99.2785 127.667 99.2778C128.331 99.2768 128.916 99.1354 129.424 98.8534C129.931 98.5715 130.333 98.2272 130.629 97.8205C130.934 97.4138 131.097 97.0191 131.12 96.6362L132.047 97.6779C131.993 98.0061 131.845 98.3696 131.603 98.7684C131.362 99.1671 131.038 99.5504 130.632 99.9182C130.234 100.278 129.758 100.58 129.204 100.822C128.657 101.058 128.04 101.176 127.353 101.177C126.494 101.178 125.739 101.011 125.091 100.676C124.449 100.341 123.949 99.8923 123.589 99.3303C123.236 98.7605 123.06 98.124 123.059 97.4209C123.058 96.7412 123.19 96.1434 123.455 95.6274C123.719 95.1036 124.102 94.6695 124.601 94.325C125.101 93.9728 125.702 93.7063 126.405 93.5256C127.108 93.3449 127.893 93.254 128.76 93.2528L131.279 93.2493ZM143.978 98.0362L148.277 88.2333L150.363 88.2304L144.732 100.918L143.232 100.92L137.59 88.2483L139.676 88.2454L143.978 98.0362ZM139.043 88.2462L139.06 100.926L136.892 100.929L136.875 88.2493L139.043 88.2462ZM148.834 100.912L148.816 88.2326L150.996 88.2295L151.014 100.909L148.834 100.912ZM164.25 88.211L164.268 100.891L162.1 100.894L162.083 88.2141L164.25 88.211ZM163.52 94.0363L163.523 95.8175C163.086 95.9822 162.64 96.1312 162.188 96.2647C161.742 96.3903 161.27 96.4925 160.77 96.5714C160.278 96.6424 159.743 96.6783 159.165 96.6791C158.165 96.6805 157.297 96.5098 156.562 96.1671C155.828 95.8165 155.26 95.29 154.861 94.5874C154.462 93.877 154.261 92.9828 154.26 91.9047L154.254 88.2015L156.422 88.1985L156.428 91.9016C156.428 92.6048 156.535 93.1749 156.746 93.6121C156.958 94.0493 157.267 94.3731 157.673 94.5835C158.08 94.7861 158.576 94.8869 159.162 94.8861C159.725 94.8853 160.252 94.8494 160.744 94.7784C161.244 94.6996 161.72 94.5974 162.173 94.4717C162.634 94.3461 163.083 94.2009 163.52 94.0363ZM175.434 98.7071L175.425 92.1798C175.424 91.6798 175.322 91.2463 175.118 90.8794C174.922 90.5047 174.625 90.2161 174.226 90.0135C173.828 89.8109 173.335 89.71 172.749 89.7109C172.203 89.7116 171.722 89.8061 171.308 89.9941C170.902 90.1822 170.582 90.4287 170.349 90.7338C170.122 91.0388 170.01 91.367 170.01 91.7186L167.842 91.7216C167.841 91.2685 167.958 90.8191 168.192 90.3735C168.426 89.9278 168.761 89.525 169.198 89.165C169.643 88.7972 170.174 88.5074 170.79 88.2956C171.415 88.076 172.11 87.9657 172.876 87.9646C173.798 87.9633 174.611 88.1184 175.314 88.4299C176.025 88.7414 176.581 89.2133 176.98 89.8456C177.387 90.47 177.591 91.2549 177.593 92.2002L177.601 98.1064C177.602 98.5283 177.637 98.9775 177.708 99.4539C177.787 99.9304 177.901 100.34 178.05 100.684L178.05 100.871L175.788 100.875C175.679 100.625 175.592 100.293 175.529 99.8789C175.466 99.4571 175.434 99.0665 175.434 98.7071ZM175.801 93.1871L175.827 94.7105L173.635 94.7135C173.018 94.7144 172.467 94.766 171.983 94.8682C171.499 94.9626 171.093 95.1077 170.765 95.3035C170.437 95.4993 170.188 95.7457 170.016 96.0428C169.845 96.3321 169.759 96.6721 169.76 97.0627C169.76 97.4611 169.851 97.8243 170.031 98.1522C170.211 98.48 170.481 98.7414 170.84 98.9362C171.208 99.1232 171.657 99.2163 172.189 99.2156C172.853 99.2146 173.438 99.0732 173.946 98.7912C174.453 98.5093 174.855 98.165 175.151 97.7583C175.455 97.3516 175.619 96.9569 175.642 96.574L176.569 97.6157C176.515 97.9439 176.367 98.3074 176.125 98.7062C175.884 99.1049 175.56 99.4882 175.154 99.856C174.756 100.216 174.28 100.517 173.726 100.76C173.179 100.995 172.562 101.113 171.875 101.114C171.015 101.116 170.261 100.949 169.612 100.614C168.971 100.279 168.471 99.8301 168.11 99.2681C167.758 98.6983 167.581 98.0618 167.58 97.3587C167.58 96.679 167.711 96.0812 167.976 95.5652C168.241 95.0414 168.623 94.6073 169.123 94.2628C169.623 93.9106 170.224 93.6441 170.927 93.4634C171.629 93.2827 172.414 93.1918 173.282 93.1906L175.801 93.1871ZM186.178 88.1804L186.196 100.86L184.016 100.863L183.998 88.1834L186.178 88.1804ZM190.432 88.1744L190.434 89.9323L179.829 89.9471L179.826 88.1893L190.432 88.1744ZM196.917 99.2982C197.432 99.2975 197.909 99.1914 198.346 98.9798C198.783 98.7683 199.142 98.4787 199.423 98.1111C199.704 97.7357 199.863 97.3097 199.902 96.8331L201.964 96.8302C201.926 97.5803 201.673 98.2798 201.205 98.9289C200.745 99.5702 200.141 100.091 199.391 100.49C198.642 100.882 197.818 101.078 196.919 101.079C195.966 101.081 195.134 100.914 194.422 100.579C193.719 100.244 193.132 99.784 192.663 99.1987C192.201 98.6134 191.852 97.942 191.617 97.1845C191.389 96.4192 191.275 95.6108 191.274 94.7592L191.273 94.267C191.272 93.4155 191.384 92.6106 191.61 91.8525C191.843 91.0865 192.19 90.4103 192.65 89.8237C193.118 89.2371 193.703 88.7753 194.406 88.4384C195.116 88.1015 195.948 87.9324 196.901 87.931C197.893 87.9296 198.761 88.1316 199.503 88.5368C200.246 88.9342 200.829 89.4802 201.252 90.175C201.682 90.8619 201.918 91.6428 201.958 92.5177L199.896 92.5206C199.856 91.9972 199.707 91.5248 199.448 91.1033C199.198 90.6817 198.853 90.3463 198.416 90.0969C197.986 89.8397 197.482 89.7115 196.903 89.7123C196.239 89.7132 195.681 89.8468 195.228 90.1131C194.783 90.3715 194.428 90.7236 194.163 91.1692C193.906 91.6071 193.719 92.0956 193.603 92.6349C193.494 93.1663 193.44 93.7093 193.441 94.264L193.442 94.7562C193.442 95.3109 193.498 95.8577 193.608 96.3966C193.718 96.9355 193.902 97.4235 194.161 97.8607C194.427 98.2978 194.783 98.6488 195.229 98.9138C195.682 99.171 196.245 99.2991 196.917 99.2982ZM206.945 88.1514L206.963 100.831L204.795 100.834L204.777 88.1544L206.945 88.1514ZM215.265 88.1398L209.264 95.4138L206.229 95.418L205.898 93.52L208.382 93.5166L212.629 88.1434L215.265 88.1398ZM212.951 100.823L208.279 95.087L209.671 93.5148L215.705 100.819L212.951 100.823ZM216.951 94.6179L216.951 94.3483C216.949 93.4343 217.081 92.5864 217.345 91.8048C217.61 91.0154 217.992 90.3313 218.491 89.7524C218.99 89.1658 219.595 88.7118 220.305 88.3905C221.016 88.0614 221.813 87.8962 222.695 87.895C223.586 87.8938 224.387 88.0567 225.098 88.3838C225.818 88.7031 226.428 89.1554 226.928 89.7406C227.437 90.3181 227.825 91.0011 228.091 91.7898C228.358 92.5707 228.492 93.4182 228.493 94.3322L228.494 94.6017C228.495 95.5158 228.363 96.3636 228.099 97.1453C227.834 97.9269 227.449 98.611 226.942 99.1977C226.442 99.7765 225.838 100.23 225.127 100.56C224.424 100.881 223.628 101.042 222.737 101.043C221.847 101.045 221.046 100.886 220.334 100.566C219.623 100.239 219.013 99.7869 218.504 99.2095C218.003 98.6242 217.62 97.9412 217.353 97.1603C217.086 96.3794 216.952 95.5319 216.951 94.6179ZM219.118 94.3453L219.119 94.6148C219.12 95.2477 219.195 95.8452 219.344 96.4075C219.493 96.962 219.717 97.4539 220.014 97.8831C220.319 98.3124 220.699 98.6517 221.152 98.9011C221.606 99.1426 222.133 99.263 222.735 99.2621C223.328 99.2613 223.848 99.1395 224.293 98.8967C224.746 98.646 225.12 98.3057 225.416 97.8756C225.713 97.4455 225.935 96.953 226.082 96.3981C226.238 95.8354 226.315 95.2376 226.314 94.6048L226.314 94.3353C226.313 93.7103 226.234 93.1205 226.077 92.5661C225.928 92.0038 225.7 91.508 225.395 91.0787C225.098 90.6416 224.722 90.2984 224.269 90.049C223.823 89.7997 223.299 89.6754 222.698 89.6762C222.104 89.6771 221.581 89.8028 221.128 90.0534C220.683 90.3041 220.309 90.6483 220.005 91.0863C219.708 91.5164 219.486 92.0128 219.339 92.5755C219.191 93.1304 219.118 93.7203 219.118 94.3453ZM238.706 97.9039L243.005 88.101L245.091 88.0981L239.46 100.786L237.96 100.788L232.318 88.1159L234.404 88.113L238.706 97.9039ZM233.771 88.1139L233.788 100.794L231.62 100.797L231.603 88.1169L233.771 88.1139ZM243.562 100.78L243.544 88.1002L245.724 88.0972L245.742 100.777L243.562 100.78ZM257.925 88.0802L257.942 100.76L255.774 100.763L255.757 88.0832L257.925 88.0802ZM266.245 88.0685L260.243 95.3425L257.208 95.3468L256.877 93.4488L259.362 93.4453L263.608 88.0722L266.245 88.0685ZM263.931 100.751L259.259 95.0158L260.651 93.4435L266.685 100.748L263.931 100.751ZM270.925 90.4995L270.946 105.617L268.766 105.62L268.742 88.065L270.734 88.0623L270.925 90.4995ZM279.473 94.2844L279.473 94.5305C279.475 95.4524 279.367 96.308 279.149 97.0974C278.931 97.8789 278.612 98.5591 278.191 99.1378C277.778 99.7165 277.267 100.166 276.658 100.488C276.049 100.809 275.35 100.97 274.561 100.971C273.756 100.972 273.045 100.84 272.427 100.576C271.81 100.311 271.286 99.9248 270.855 99.4176C270.425 98.9104 270.08 98.3015 269.822 97.5909C269.571 96.8803 269.398 96.0798 269.303 95.1893L269.301 93.8768C269.393 92.9391 269.568 92.099 269.825 91.3565C270.081 90.614 270.42 89.9807 270.841 89.4566C271.27 88.9248 271.789 88.5217 272.398 88.2474C273.007 87.9653 273.71 87.8237 274.507 87.8226C275.304 87.8215 276.011 87.9768 276.629 88.2884C277.246 88.5922 277.767 89.029 278.189 89.5987C278.612 90.1684 278.929 90.8516 279.141 91.6482C279.361 92.4369 279.472 93.3157 279.473 94.2844ZM277.294 94.5336L277.293 94.2875C277.293 93.6547 277.225 93.061 277.092 92.5065C276.958 91.9442 276.75 91.4523 276.469 91.0308C276.195 90.6015 275.843 90.2661 275.413 90.0245C274.982 89.7751 274.471 89.6508 273.877 89.6516C273.33 89.6524 272.854 89.7468 272.448 89.9349C272.049 90.1229 271.71 90.3773 271.429 90.698C271.148 91.0109 270.918 91.3706 270.739 91.7771C270.568 92.1758 270.44 92.59 270.354 93.0198L270.358 96.055C270.515 96.6016 270.735 97.117 271.017 97.6009C271.299 98.0771 271.674 98.4633 272.143 98.7595C272.613 99.0479 273.203 99.1916 273.914 99.1906C274.5 99.1898 275.003 99.068 275.425 98.8252C275.854 98.5746 276.205 98.2343 276.478 97.8042C276.759 97.3742 276.965 96.8817 277.097 96.3268C277.229 95.7641 277.295 95.1664 277.294 94.5336ZM289.921 98.5472L289.912 92.0198C289.911 91.5198 289.809 91.0864 289.606 90.7195C289.41 90.3448 289.113 90.0561 288.714 89.8535C288.315 89.651 287.823 89.5501 287.237 89.5509C286.69 89.5517 286.21 89.6461 285.796 89.8342C285.39 90.0223 285.07 90.2688 284.836 90.5738C284.61 90.8788 284.497 91.2071 284.497 91.5587L282.33 91.5617C282.329 91.1086 282.445 90.6592 282.679 90.2135C282.913 89.7679 283.248 89.3651 283.685 89.0051C284.13 88.6373 284.661 88.3475 285.278 88.1357C285.903 87.9161 286.598 87.8057 287.363 87.8047C288.285 87.8034 289.098 87.9585 289.801 88.27C290.513 88.5815 291.068 89.0534 291.468 89.6856C291.875 90.3101 292.079 91.0949 292.08 92.0403L292.088 97.9465C292.089 98.3684 292.125 98.8175 292.196 99.294C292.275 99.7705 292.388 100.18 292.537 100.524L292.538 100.711L290.276 100.715C290.166 100.465 290.08 100.133 290.017 99.7189C289.954 99.2971 289.922 98.9066 289.921 98.5472ZM290.289 93.0271L290.314 94.5505L288.123 94.5536C287.506 94.5545 286.955 94.606 286.471 94.7082C285.986 94.8027 285.58 94.9478 285.252 95.1435C284.925 95.3393 284.675 95.5858 284.504 95.8829C284.332 96.1722 284.247 96.5121 284.247 96.9028C284.248 97.3012 284.338 97.6644 284.518 97.9922C284.698 98.3201 284.968 98.5814 285.328 98.7763C285.695 98.9632 286.145 99.0564 286.676 99.0556C287.34 99.0547 287.926 98.9133 288.433 98.6313C288.941 98.3493 289.342 98.005 289.639 97.5984C289.943 97.1917 290.106 96.7969 290.129 96.4141L291.056 97.4558C291.002 97.784 290.854 98.1474 290.613 98.5462C290.371 98.945 290.047 99.3283 289.642 99.696C289.244 100.056 288.768 100.357 288.213 100.6C287.667 100.835 287.05 100.954 286.362 100.955C285.503 100.956 284.749 100.789 284.1 100.454C283.459 100.119 282.958 99.6702 282.598 99.1082C282.245 98.5384 282.069 97.9019 282.068 97.1988C282.067 96.5191 282.199 95.9212 282.464 95.4053C282.729 94.8814 283.111 94.4473 283.61 94.1029C284.11 93.7506 284.711 93.4841 285.414 93.3035C286.117 93.1228 286.902 93.0319 287.769 93.0307L290.289 93.0271ZM300.964 100.934C300.082 100.935 299.281 100.788 298.562 100.492C297.85 100.188 297.236 99.7635 296.72 99.2174C296.211 98.6712 295.82 98.0233 295.545 97.2737C295.271 96.5241 295.133 95.704 295.132 94.8133L295.131 94.3211C295.13 93.2899 295.281 92.3717 295.584 91.5666C295.888 90.7537 296.301 90.0656 296.824 89.5024C297.346 88.9391 297.939 88.5125 298.603 88.2225C299.267 87.9326 299.954 87.7871 300.665 87.7861C301.571 87.7848 302.353 87.94 303.009 88.2515C303.674 88.5631 304.217 88.9999 304.64 89.5618C305.063 90.1159 305.376 90.7717 305.58 91.5292C305.784 92.2789 305.887 93.0991 305.888 93.9897L305.89 94.9624L296.421 94.9756L296.419 93.2061L303.719 93.1959L303.719 93.0318C303.687 92.4694 303.569 91.9226 303.365 91.3917C303.169 90.8607 302.856 90.4236 302.426 90.0805C301.996 89.7373 301.41 89.5663 300.667 89.5673C300.175 89.568 299.722 89.6741 299.308 89.8856C298.895 90.0893 298.54 90.3945 298.243 90.8012C297.947 91.2078 297.717 91.7043 297.554 92.2904C297.391 92.8766 297.31 93.5525 297.311 94.3181L297.311 94.8103C297.312 95.4119 297.395 95.9781 297.56 96.5092C297.732 97.0324 297.979 97.493 298.3 97.8909C298.629 98.2889 299.024 98.6009 299.485 98.8268C299.954 99.0527 300.485 99.1652 301.079 99.1644C301.845 99.1633 302.493 99.0062 303.024 98.6929C303.555 98.3797 304.019 97.9611 304.417 97.4371L305.731 98.4782C305.458 98.8927 305.111 99.2877 304.689 99.6633C304.268 100.039 303.749 100.344 303.132 100.58C302.523 100.815 301.8 100.933 300.964 100.934Z" fill="#2A4437"/>
</g>
<defs>
<linearGradient id="paint0_linear_63_87809" x1="473.5" y1="89.5" x2="505" y2="95" gradientUnits="userSpaceOnUse">
<stop stop-color="#00A551" stop-opacity="0.8"/>
<stop offset="0.035" stop-color="#007238" stop-opacity="0"/>
<stop offset="0.935" stop-color="#008C44" stop-opacity="0"/>
<stop offset="1" stop-color="#00A551" stop-opacity="0.8"/>
</linearGradient>
<clipPath id="clip0_63_87809">
<rect width="597" height="213" fill="white"/>
</clipPath>
<clipPath id="clip1_63_87809">
<rect width="1728" height="1117" fill="white"/>
</clipPath>
</defs>
</svg>
